<svg xmlns="http://www.w3.org/2000/svg" viewBox="0 0 1978 606">
  <path fill="#0c0c00" fill-opacity=".9" d="M1270 164q0-3 3-5h1l66 10 17 1c23 1 43 0 70-3l9 1h14l20 4 13 5c4 2 9 1 13 2l39 10 9 2c24 8 42 14 61 26a1 1 25 0 0 1-1l2-4 16 3 8 1 28 1 13 1h5l24 1 64 10 21 5 17 7c17 8 34 15 49 26l13 10c5 5 12 9 16 14q8 9 10 20 2 5 2 15v20c-1 17-5 30-14 45q-5 10-11 15-7 7-16 11l-25 14-16 10q-19 10-39 18l-33 16-13 5-20 6-26 5-36 7-38 6-18 3c-15 2-30 4-44 4l-44 1h-20l-33 1-75-1-20-1-28-1-30-1-5-1-23-1-87-5-33-2-12-1-86-4-10 1-37-3h-29l-116-7-62-4q-32-2-86-2h-22l-47-1h-30l-58-3-51-4-50-4-44-3-18-2-24-3-29-3-14-2-14-3-48-8-11-2-14-4-46-17-18-8c-14-8-28-22-35-37l-6-13-11-27-6-26c-1-10 1-20 3-31q2-9 6-15c11-16 22-30 38-39l28-15c13-7 27-12 41-17l14-4 28-8 21-5c14-2 29-4 44-3 3 1 7 0 11-2 15-6 31-12 48-16l30-6 37-9c19-4 37-5 56-6h9l12 1 23 1 23 5 2-4 4-1 8-2 21-4 20-3 37-2 49-3 24-3c9-1 18-2 25-1 8 1 15 3 24 3l35 5 15 5 12 3 18 3 13 1 20 1 5 1h18l36-2h9l14 1 23 3 14 1 18 3h5l6-1 41 6c4 1 9 4 14 4l14 1h49l6-1 9 1q20 0 39 2l10 1c9 1 19 1 27 6l1-1Zm-116 304 114 7 36 2 25 2 28 1 20 1h72l57-1c35 0 70-1 105-8l41-7 20-3 41-8c17-3 34-10 50-18l16-7c15-6 31-12 45-21 8-5 15-10 23-13 12-5 21-10 28-18 5-6 13-18 12-27l-1-19c-4-15-16-23-28-33l-25-17-48-21-18-5-74-14-39-6-24-8-10-2q-2-1 0 0l10 7 9 8 16 17q13 17 23 35c2 3 3 6 3 10q-3 20-15 37-8 11-20 15l-8 3h-7c-17-8-34-22-47-37l-33-42c-17-26-38-48-62-67-11-8-20-13-32-16l-16-2h-26l-30 2q-2 1 0 1l8 4c14 6 27 14 40 21q10 5 16 10l15 12 40 37c11 11 19 24 14 40-5 14-12 28-24 36l-10 5q-15 5-28-1l-25-13q-11-6-20-14-21-19-36-39l-17-21-24-28-14-15c-16-15-35-27-55-36l-16-5-16-2-18-2-38-2-1 1 2 1 2 1 29 18c26 17 52 35 76 54l13 13c7 7 11 16 12 26q2 7 0 16-2 13-7 25-7 14-21 18c-9 2-16-1-23-3l-5-1-18-5c-5-2-11-4-16-8l-9-6c-18-17-31-29-45-45l-33-33-27-30-20-24q-15-15-35-24-6-3-13-4l-33-4q-16-3-32-3l-27 1 28 15 29 23c16 12 26 29 33 48q4 10 5 22c1 14-4 29-9 43q-2 6-6 9-5 6-13 8-6 2-11 0-8-2-15-8l-11-10-23-33c-8-11-12-22-18-38q-4-11-8-17-7-11-17-22c-22-23-49-43-79-51l-25-5-14-2c-13-1-27-5-40-3q-31 4-61 5-3 1 0 1l10 4 40 17 21 12q14 9 20 15l16 15c8 10 10 17 14 30l3 18q-1 18-5 35c-2 7-4 12-9 17-2 2-5 2-8 2q-20-2-35-15c-9-7-19-22-27-30l-35-34c-11-11-22-21-34-28l-33-20q-29-17-58-24l-13-2c-16-1-32-3-47-2l-38 3v1l4 1c6 3 14 4 19 6l22 7q16 7 31 16l11 9c7 8 13 19 16 30l4 22c3 19 0 34-4 54l-4 12q-4 7-11 13l-4 2c-6 0-16-9-21-14l-17-15-33-27q-28-24-66-46c-10-6-20-14-30-19-16-8-34-10-53-12q-18-1-35 2-22 3-48 12l-6 1c-15 5-31 10-47 17l-20 12a115 115 0 0 0-46 44l-3 9q-4 14-4 29l1 4 9 21 3 5q13 16 30 24 18 9 42 16c9 4 20 6 30 9l17 4 65 11 13 1 14 2 21 2 8 1 24 3 19 2 60 4 14 1 28 2 10 1 59 3h4l2 1 32 1 16-1 95 2 47 1 7 1h7l59 3 20 1 51 3 3 1h4l22 1 51 2 31 1 20 1 68 2 20 1ZM767 273c6 5 35 20 38 6v-6l-4-13c-2-7-4-10-8-15q-15-18-33-30l-28-16-32-14-14-6-33-7c7 4 15 8 22 14l25 19c21 19 34 31 49 50l18 18Zm339-88 18 19c10 12 20 24 32 34q13 11 25 24l11 11c18 18 35 35 61 42l13 4c6 2 14 4 21 3l9-2v-1q-1-9-5-14l-15-17q-7-7-22-17l-40-28-40-27q-19-12-39-20l-26-12-5-2q-1-1 0 0l2 3Zm-165 27 15 33 5 9 19 24c8 11 21 24 35 24 3-1 12-4 14-7v-3c-4-21-14-42-30-56l-30-24q-6-5-15-9l-29-17h-1l10 12 7 14Zm-541-22 39 23c14 8 27 18 40 28 12 8 24 20 37 29l12 10c5 6 9 12 15 16 4 3 9 8 13 9 5 0 7-2 9-6 3-4 4-6 5-11l2-12q-2-16-9-30c-8-17-22-23-38-32l-12-6q-14-6-26-9l-8-2-9-3q-34-8-70-4Zm927 10 5 4 16 17c11 12 25 25 34 37q22 29 48 49l9 6 18 10c15 10 31 13 46 2l1-1q-5-10-13-18l-35-34c-11-10-21-18-34-26l-31-17-40-20-24-9h-1 1Zm202 12 6 6 21 24 31 39c15 18 31 36 52 46 3 1 5 2 9 1 7-2 13-3 18-8v-1l-13-22c-10-15-23-31-38-41a326 326 0 0 0-86-44Z"/>
</svg>