<svg xmlns="http://www.w3.org/2000/svg" viewBox="0 0 1956 1071">
  <path fill="#0c0c00" fill-opacity=".9" d="m936 1005 7 8a1 1-15 0 1-1 1c-4-1-10-6-14-9a1 1-44 0 0-1 0l-3 2a1 1 31 0 1-1 0c-6-1-12-8-18-12l-22-16-20-15c-3-3-5-1-9-1q-21 1-44-1-94-7-182-19l-80-14-19-4-48-14q-35-10-81-29l-18-8-34-15-18-8-40-21-49-31-22-17c-11-9-20-18-29-30q-20-24-38-50l-2-3-1-3-7-14-3-7-11-30-3-12-6-26-2-21v-20l1-7c-1-10 3-16 7-24l2-8 5-17q1-7 4-11l10-19 5-9q13-24 22-37 12-18 31-40l14-15 29-30 12-11c8-8 18-15 27-22l36-26q23-16 49-30 32-17 75-33l15-5 21-8q28-9 56-15l40-8 19-3 46-10q17-2 27-5l45-6 46-3h11a7 7-63 0 0 4-2l19-12c14-10 29-23 43-31l20-13 12-10 14-10 1-1v-1a1 1 0 0 1 1-1c10 3 18 7 28 8l30 7 18 3c3 0 8 3 11 1q15-10 33-15c18-4 35-10 52-16l19-7c15-4 31-6 47-7h20l54 6 26 4 11 3 15 5 55 21 32 17 37 19 23 13c14 7 25 18 37 28q18 14 33 31l3 2 32 6 30 10 18 8c16 6 33 12 48 21l13 9 45 31c12 10 25 18 36 29l30 25 12 12 23 23q15 14 24 32t14 24l6 10 3 2 22 9c19 10 39 20 59 28 12 5 21 13 34 16a2 2-1 0 1 2 2c1 5 2 14-3 17l-8 3-47 15-13 4-32 12-1 1q4 15 6 31l1 20-4 26c-4 19-9 36-15 54l-16 42c-8 17-18 32-30 46l-25 28c-9 11-21 20-32 30q-8 9-15 14c-15 12-31 24-48 34l-53 26c-20 11-43 17-64 26q-26 9-53 16l-35 8-16 4q-51 13-105 15l-20 1-96 6h-56q-46-1-92-6c-6 0-8 2-13 4l-26 13-26 12q-10 3-17 7l-11 5h-1q-8-4-15-10-1-2-4-2Zm431-847-51-27-17-8-53-21a325 325 0 0 0-88-17l-35-2-25 3q-11 1-19 4c-14 3-30 9-40 12l-37 12c-10 2-19 8-28 14l-15 12-16 15c-13 12-24 23-34 37q-10 12-14 28l-6 18q-6 13-7 30c-1 8 0 15 3 21 2 5 6 7 9 11l4 5 19 29 16 18 8 11c4 7 10 11 16 16l10 7 19 14 7 5q11 8 21 12l16 3c5 1 11 2 13 7a1 1 0 0 0 1 1l30-9c10-3 19-6 30-7q32-3 65-3h18q18 0 34 4l20 4 20 5 35 9 37 7 20 4 30 9q12 3 25 11h6c12-6 25-12 35-19 12-9 21-19 30-32 3-4 5-10 7-15l17-32 1-6 3-15 1-6v-7l-5-27-4-13-9-20c-6-12-12-19-21-29q-5-4-10-11l-21-21-32-26c-4-4-9-8-14-10l-25-15Zm-470-57a2 2 37 0 0-2 0l-24 18-31 21-16 12-29 20-35 24-26 18-41 25q-15 9-31 16v1h17l48 8 30 7 25 7 39 13 11 5 40 21 9 7 23 18-4-6q-3-7-6-9l-8-9q-5-8-7-19c-5-18-7-38-5-57q3-17 9-33l5-11c2-8 5-18 9-23q12-18 27-33l27-24q1 0 0 0h-3l-20-6c-11-2-21-7-31-11ZM132 566l1 13 2 12 1 10 13 48 9 16 6 15 36 48q7 10 13 15 7 8 16 14l22 19 32 21q28 18 58 33l18 8 41 18c33 14 62 24 94 34l19 6 28 8 53 10 45 8 44 6 44 6 16 2 10 2 92 11v-1l-3-2-16-14c-7-7-18-13-24-18l-17-14-57-39-44-29-16-11c-17-11-33-19-50-32l-16-12-41-27-46-30-26-22-4-2c-15-6-32-10-48-17l-12-4-32-14-25-10-10-6-10-6q-15-6-29-15-6-4-10-9l-17-19-9-12a2 2 81 0 0-1-1 278 278 0 0 1-64-25l-34-15c-6-2-14-4-21-8-3-2-3-12-3-15q0-3 3-3h1l12-8 24-14 11-8q11-8 23-14l22-12h3v-1c2-10 4-20 8-30l7-20 3-6 22-33 15-15 40-30 5-4 25-13c19-11 40-19 60-27q42-17 86-22l20-2c15-2 30-3 46-3h32l13 1a1 1-64 0 0 1 0l14-12 26-17 32-22c12-7 23-16 35-24v-1l-6 2-60 11-38 9-37 8-20 4-38 8q-52 12-101 30l-19 8q-26 11-34 16-23 11-44 24l-34 22c-17 12-33 24-47 37l-27 24-12 13c-16 17-31 35-43 54l-18 31-11 22c-5 9-7 18-11 27l-8 17c-1 4-4 8-7 12q-3 3-2 7Zm1508-177q18 4 34 11l40 12 24 10q28 9 38 14v-1q-9-18-23-33c-14-13-24-25-37-36l-26-23-13-11-27-21-15-13c-19-13-38-28-58-38l-41-19c-18-8-35-15-53-20q5 5 8 11 7 11 16 33l3 7c3 14 7 29 8 42q0 13-2 25a1 1 9 0 0 1 2c13 1 26 10 39 15 7 4 15 6 22 9l40 16 22 8ZM407 642c5 3 12 4 18 6l26 10 13 4c9 4 17 7 28 8l15 3 33 6 15 1c10 1 20 3 31 3h43c19-2 35-5 52-15 11-7 24-13 32-24 0-2 2-3 4-4l18-14c15-13 32-20 51-26l25-9c13-4 27-5 41-6l11-1c6 0 14-3 21 0a2 2-69 0 0 3-1c1-5 4-9 6-13l12-27q5-11 12-20l22-24q13-14 29-25c1-1 2-2 1-4l-5-20q-2-9-5-14-3-7-8-13-14-19-30-37l-6-6-15-14-23-18c-8-7-17-12-25-16l-30-16-13-5-36-13-16-4-36-9-46-6-24-1h-18q-27-2-44-1l-51 5q-47 6-89 23l-32 13c-15 6-29 15-44 22-6 3-11 6-15 10l-27 21-15 13c-11 12-19 26-27 39-5 10-7 21-11 30-3 8-3 16-5 25v31l2 11 1 15c0 8 2 16 4 23 1 6 5 13 10 18l10 11c9 10 22 16 33 21l25 13 19 8q17 6 30 13Zm1485-133-7-3-21-8-37-18-26-11h-4q-3-4-9-6l-31-13-33-13-32-11-23-8c-11-5-27-9-38-13l-34-15-29-13q-10-4-25-13l-15-8-13-5a1 1 0 0 0-1 0l-2 13c-2 11-6 20-11 31l-11 20-6 11-5 9q-11 13-18 18-12 11-31 16h-2v1c13 6 21 12 36 24 11 9 23 17 33 28l23 29 6 7q7 8 11 18l5 12 7 12 9 20 7 18c3 8 4 14 4 22a1 1 0 0 0 1 1l7-4 18-10 10-6 34-16 26-16 14-8c12-7 24-15 38-21l10-6 22-10q15-9 35-15l57-22c5-3 11-4 16-6l12-5 23-7Zm-916-41q3-4 8-7l27-18-25-13-7-5c-6-5-8-8-14-11a1 1-1 0 0-1 1q3 4 4 9 6 22 7 44h1Zm-88 261 1 12 3 14c2 6 7 11 11 16 7 8 15 14 23 21l14 10c5 4 9 11 14 14l27 15c10 6 23 8 35 11q11 3 18 3c18 3 37 0 55-2h18l26 2h9l23 5 13 2 68 6 32 2 15-1q24-2 47-11l21-8 15-7 18-8 9-3q20-6 37-14l22-10 11-5 11-6 13-7q17-8 35-22l14-12 5-6 4-7 8-40v-5c-1-9-1-17-3-25l-4-10-9-24-11-20-4-9q-4-9-10-16l-25-29q-9-11-18-19l-33-25c-14-11-29-17-45-24l-18-8-34-10-21-4-53-12c-20-6-37-9-56-13l-27-3-38-1-4 1h-13l-36 2q-13 2-43 11c-17 5-28 9-41 18q-26 17-46 34c-15 12-23 22-38 39-5 5-8 11-12 17l-5 13-15 33q-4 6-7 19l-3 12c-2 10-4 20-4 32l-1 14v25l1 8 1 15ZM259 469q0-1 0 0l-14 11c-8 5-20 12-27 18q-16 14-34 22l-4 3 19 6 24 12 18 8 30 13v-1l-5-14c-3-14-5-23-5-35l-1-14c-2-9-1-19-1-29Zm1173 373-13 4q-9 2-23 8l-17 7-17 6-18 6c-12 5-26 8-39 10q-21 2-45 1l-57-5-5 2-21 16-26 16c-18 12-31 20-55 33l-22 15-11 5v1l30-2 33-1 86-4 52-3 55-4c35-1 68-7 100-16l11-3 34-8c32-8 63-20 94-31l16-7 40-20 32-19c16-11 32-23 46-37l32-32 23-27c19-22 30-46 39-72 10-31 17-56 22-87v-21l-2-14v-1l-22 9-27 12c-4 1-7 4-10 6l-16 7-15 9c-13 6-25 14-37 22l-37 23c-10 6-21 10-31 15l-16 8-11 6-12 5-1 2-1 9 1 10-1 13-5 23-2 7-3 14-4 7c-4 7-10 12-16 17l-13 10c-8 5-15 11-24 15l-30 16-41 19ZM696 691c-16 12-35 16-54 19l-20 1h-29l-36-2c-10 0-20-2-29-4l-15-3q-5-1-1 1l43 25 54 33c9 5 18 13 26 17l58 36c37 22 63 41 94 62l15 12q10 9 22 16l12 10 37 32 15 12c12 10 27 19 37 27 3 2 3 6 7 8l11 7a2 2 51 0 0 2 0l21-10q48-20 93-46l18-11 56-34 41-22v-1l-28-5-23-2-13 1h-3l-35 4q-14 1-35-1l-28-5-11-4-18-9-19-12c-5-4-9-10-14-13l-25-20-11-11c-16-18-28-36-34-60q-3-8-3-17l-1-9-2-21v-32l1-14q1-20 6-41l-17 2c-9 0-16 1-24 3-4 0-7 2-11 3l-9 2-34 15-19 10-13 10-20 15c-6 5-10 12-17 15l-18 11Z"/>
  <path fill="#0c0c00" fill-opacity=".9" d="M1217 211q-21-10-39-27c-6-6-9-12-8-21 0-7 2-17 8-22s14-5 20-4q25 4 48 15c16 7 40 19 37 39-1 8-2 19-7 25l-5 4q-3 3-8 3c-15-1-32-6-46-12Zm46-6 10 1 1 1 1 1c6-6 4-15-1-21q-8-10-21-17l-20-8q-16-7-34-9c-8-1-16-1-23 4l6 9q29 27 67 37l14 2Zm-286 15c-4 1-10-1-13-3q-4-3-6-7c-6-15 2-33 15-41l12-4c11-3 23-5 34-2l5 3c3 6 5 19 1 24l-2 5c3 11-1 13-10 17q-17 7-36 8Zm31-26c7-3 9-7 12-13q1 0 0 0c-13-3-23-1-34 3q-15 4-23 19l1 1h12q17-3 32-10Zm113 92c-20-2-39-13-53-26-3-2-6-7-6-11-2-14 8-25 22-28 15-4 37 4 50 13 12 8 20 16 19 30q-1 9-7 18c-5 6-18 4-25 4Zm-53-40 1-5a2 2-85 0 0-2 3 2 2-85 0 0 1 2Zm75 9q5 6 5 14h1c3-5-2-11-6-14Zm234 58q-19-7-29-25c-5-8-5-16-2-26l4-8c10-11 25-10 39-8q15 2 19 4c13 3 24 8 33 18 6 6 9 11 9 20-1 9-4 20-12 26-3 9-6 9-15 9q-24-2-46-10Zm15-16c14 5 28 6 42 9a2 2-61 0 0 1-1l8-9a1 1-45 0 0 0-1l-4-7c-17-16-35-19-56-22q-14-2-28 3a1 1 0 0 0-1 1q9 14 23 21 6 4 15 6Zm-788 70c-15 6-33 7-49 4-8-2-11-8-13-16q-5-21 13-34t42-13l16 1c6 0 9 2 14 4 10 5 11 19 9 28l-4 7q-8 10-19 15l-9 4Zm714-39c13 6 26 15 22 32l-7 13c-2 5-11 8-16 8q-34 2-58-21-7-7-7-17c0-8 2-18 10-22 5-4 10-5 16-5q21 2 40 12Zm-56 14v-5h-1l-2 2a1 1 0 0 0 0 1l3 6h1l-1-3v-1Zm74 14v4q0 1 0 0v-4q-1-1 0 0Zm-306-22c14 4 26 9 38 18 6 4 10 9 10 16l-3 14c-1 2-4 4-4 6-2 9-10 10-18 9q-29-4-51-18-8-6-13-15-3-5-3-11c0-7 1-15 7-20q8-5 18-4l19 5Zm36 34c-16-12-35-18-55-21q-9-2-17 2-1 0 0 0 2 6 6 9 24 19 55 23l11-1c4 0 5-2 7-5l-7-7Zm-229 84c-12-1-24-4-34-10-7-4-15-9-15-19a1 1 1 0 0-1-1q-3 0-5-2a1 1 7 0 1-1 0c-1-5-2-15 2-18 2-3 6-4 9-5l5-3c15-11 33-9 49-6q17 3 30 10c7 3 11 8 17 13l2 2c3 8 4 19-1 27l-1 3a1 1-89 0 1-1 1l-9 3c-10 4-18 6-28 6l-18-1Zm-378-62c9 1 15 7 17 16 2 6 3 14-1 19-4 6-8 13-14 17-13 9-20 13-32 17-12 3-18 5-29 3q-11-1-17-11c-4-7-7-11-5-19l6-8c14-18 36-28 58-33q8-2 17-1Zm-72 52-1 6a2 2-86 0 0 1 2q13 3 25 0l20-7 19-11 13-13a1 1-65 0 1 1 0h3a1 1 0 0 0 1 0q3-8 1-16a1 1 0 0 0-1 0c-19-5-42 4-59 15q-14 9-23 24Zm922 113q-8 5-17 6h-34c-21-2-47-8-60-26-6-7-5-22-2-30 3-10 18-18 27-21 10-2 22-2 33-1h14q23 3 43 16 11 6 12 17v24c-1 10-9 11-16 15Zm-73-53q-20 1-35 15a1 1-41 0 0 0 2c5 6 10 9 18 13q10 4 21 6 22 4 44 5c8 0 15-2 22-4q5-2 8 0h1q4-3 5-6c4-8-4-14-10-18q-16-10-34-12-20-3-40-1Zm-538 51c-13-2-27-6-36-15-6-6-6-15-5-23 2-18 23-27 38-27 19-2 46 5 55 23 3 8 5 23-4 29a2 2 85 0 0 0 1c-8 19-33 15-48 12Zm47-24 1 2h1q4-6-2-11c-12-9-22-11-37-12-14-1-28 2-40 10l-3 3a1 1 43 0 0 0 1q5 5 12 8 21 9 43 8 13 0 24-9h1Zm-277 8c12 0 27 1 40 3l12 4c12 6 8 15 8 26 0 5-7 7-11 8l-5 3c-7 5-11 8-19 11-9 2-20 3-30 2s-19-1-28-4c-15-4-25-9-25-26q-1-10 7-15c15-10 33-12 51-12Zm545 104c-12-8-17-20-12-33q8-20 23-36c10-12 22-19 37-23 9-2 22-2 30 6q10 10 12 25c0 3-1 5-3 7l-9 13-6 9q-9 15-23 25c-15 10-33 18-49 7Zm65-60a1 1 126 0 0 2-1 1 1 126 0 0 0-1 1 1 126 0 0-1 1 1 1 126 0 0-1 1Zm-62 55 2 1q2 0 0-1-5-4-8-10h-1q0 5 2 8c1 2 3 1 5 2Zm477 22c0 10 0 19-7 27l-6 3q-16 2-32-3l-30-10q-19-7-30-24l-6-11c-5-13-3-44 16-46 28-3 55 5 77 22 12 9 23 26 26 40v17c-1 5-3 7-8 8l-1-1c-1-4 3-6 5-9a3 3-34 0 0 0-3l-4-10q0-1 0 0Zm-104-30-1-8h-1l-1 2v1l2 5h1Zm-127 64c-4 7-5 12-15 12h-13l-47-7q-10-2-20-10l-4-5c-3-13 1-28 16-32 24-7 46-10 71-2q11 3 16 12 5 10 4 22c-1 4-3 9-7 9a1 1-76 0 0-1 1Zm-12-29c-21-7-45-3-66 3q-8 2-14 6v1c10 8 20 9 32 11l24 4c9 2 18 1 27 0l5-1c2-2 9-7 8-10-3-8-8-11-16-14Zm-148 121c-2 6-9 9-16 11l-14 2c-7 0-14-2-20-4q-19-8-35-21c-10-9-20-25-18-39l1-1c10-8 21-7 33-6l12 2 19 7c16 5 30 22 37 38 2 4 3 7 1 11Zm-30-34c-11-4-22-9-32-10q-12-2-21-1-5 1-11 5v8q1 3 4 5 18 15 41 20h15l9-1c6-2 15-4 13-11q0-3-2-5c-5-5-10-8-16-10Zm200 49c-8-4-21-11-23-21v-15c2-12 14-17 24-20q24-6 49 0 16 4 28 13c9 6 12 16 10 26q-2 10-12 13a2 2-78 0 0-1 0c-7 9-16 13-27 13h-11q-19-2-37-9Zm80-28 4 11a6 3 71 0 0 1-6 6 3 71 0 0-5-5Zm-93 4q-1-1 0 0l4 3a1 1-64 0 0 1 0c1-4-3-3-5-3Z"/>
</svg>