<svg xmlns="http://www.w3.org/2000/svg" viewBox="0 0 1448 1448">
  <path fill="#0c0c00" fill-opacity=".9" d="m613 297 8-21c4-9 15-17 24-22 6-4 13-6 18-10a2 2-33 0 0 1-2c-19-32 4-71 41-68a1 1-82 0 0 2-1l6-20c3-8 7-17 16-16l1 1c2 2 0 6-2 9q-7 13-12 27a1 1 0 0 0 1 1q8 2 15 6l7 2q14 10 18 28v11q0 9-4 17-1 1 1 1c11 2 17 8 20 19 3 9 12 13 20 17a2 2-41 0 0 1 0q9-3 19-2h17l27 7c8 2 14 8 18 15l4 7v3l14 41 9 20q9 19 21 53l7 20c1 1 1 2 3 2l18 2 19 3 18 3 8 2 10 2 14 2 10 2 17 4 18 7c17 5 34 13 49 22l30 17 20 15 11 12q10 9 15 23l3 8c4 8 6 14 3 22l-6 17c-3 7-7 15-13 20q-11 10-23 18l-38 22-41 23-18 9-28 15q-8 6-31 17l-30 17-23 12-7 5-27 15c-20 11-40 24-60 34q-14 7-20 12l-22 14c-24 13-49 31-69 40l-13 8-18 8a1 1-12 0 0-1 1v17q2 10 1 19v17l-1 16c0 13-2 27-4 40v10c-2 19-1 39-1 58l-1 25-2 28-1 21-2 42 17 1a2 2 74 0 1 1 1q2 2 2 5l2 14a1 1 88 0 0 1 1l31 1q3-1 4 2 4 10 3 18v15c24 3 39 5 57 9l18 4 15 4q14 3 28 9l13 4c14 4 28 9 41 16 5 3 13 10 15 16 1 9-2 12-10 14-16 3-30 7-48 8l-53 3c-18 0-39-3-55-4l-31-2c-13 0-27-2-40-1-13 2-26 1-39 1h-22l-41-3c-23 0-46-3-70-4-18-1-37 1-56-2l-14-2-14-2q-6-1-8-6c-2-4-3-11-3-15 1-7 5-10 11-12 9-4 19-9 29-10l26-5c9-3 16-5 25-6l16-3 15-5 21-4 27-4a1 1-7 0 0 1-1c-2-8-3-16-3-25a1 1 0 0 1 1-1l16-2h20a1 1-3 0 0 1-2l-2-17v-5a1 1 5 0 1 1 0l30-2h3v-1c2-6 1-13 1-17l1-23c1-26 2-58 1-87v-14c-2-26-1-51-1-81l2-43 2-23q1-4-1-10v-1l-31-19c-26-14-50-29-75-46l-17-11-82-52c-13-8-25-17-37-27s-31-21-47-32l-65-46c-12-9-25-21-39-30q-16-11-28-26l-5-3-10-11-3-12c-2-8-3-15-2-23 1-6 1-11 4-17q7-16 19-28c4-4 11-8 16-10l14-6q23-7 43-11l45-8 27-3h4c11-2 25-4 36 0a1 1 0 0 0 1 0l14-27 14-28 16-43 16-31 10-19 6-11c14-14 32-17 51-19 7-1 14 1 21 2l11 5h1Zm86-109-4 6 1 1h9a1 1 0 0 1 1 0l4 3 1-1v-2a2 2 0 0 1 1-1h5v-2q4-2 7 1v-5a1 1 0 0 1 1 0h2q2 0 0-2l-1-1-1-1v-2l-9-4-1 1-3 10a1 1-1 0 1-1 1q-2 1-5-1v-11a1 1 0 0 0-1-1l-12 4a1 1 0 0 0-1 2q2 0 1 2a1 1 0 0 0 2 2l3 1h1Zm35 11 3 1-4-8h-1l2 7Zm1 37-2 4v1h-3l-1 1-5 10 1 1q7-7 11-14c6-10 8-25 3-36q-2-2-1 0l1 10q0 12-4 23Zm-64-3v3h1v-3l-1-1v1Zm8 9h-1l-2-1-1 1 3 4h1v-4Zm36 101q2 1 0 1-13 0-24-6c-6-3-14-6-19-11-11-11-13-23-9-37 2-12 12-22 22-29v-1q-10-4-17-12l-5 3c-11 7-24 15-31 28-8 14-12 28-9 45l3 8c2 6 6 10 10 15 3 4 6 6 11 7q10 1 19 5l9 4 15 7 8 2c8 0 19 2 26-2l18-10c7-4 15-7 23-9l12-3c7-2 13-6 19-11 7-7 11-11 11-21 0-3 1-9-1-12-8-10-14-22-26-28-6-3-14-7-18-13l-2-6q-2-7-8-13a1 1 0 0 0-1 0q-1 7-4 13c-5 9-14 25-13 36q1 9 10 11c10 2 20 5 26 13q3 2 2 6l-1 1q0 3-3 1c-8-9-13-14-23-18-9-3-22-5-20-18 2-12 9-25 16-34l1-2q1-1 0 0a59 59 0 0 1-49 10c-2-1-2 1-3 2l-9 12q-5 7-6 11c-5 18 0 35 18 43l20 10 2 2Zm-34-94q5 5 12 8 1 1 3-1 1 0 0 0-2-1-1-3v-1l-7-1-7-2Zm24 7 4-3a2 1-36 0 0-3 0 2 1-36 0 0-1 2v1Zm-5 4c8 1 17-2 23-6q1 0 0 0h-6c-4 3-6 5-11 6l-6-1v1Zm112 21v-1l-12-1v1l5 4 7-3Zm-5 6 3 4a1 1 0 0 0 1 0l19-7q2-1 0-1h-2l-9-2-3 1-9 4v1Zm27-2-21 8-1 1 5 7h2q14-7 30-12 3-1 0-2h-4l-9-3a3 3 36 0 0-2 1Zm17 5-32 13a1 1 0 0 0 0 1q2 3 1 7a1 1 0 0 0 1 0l39-15 5-2q1 0 0 0l-12-5-2 1Zm17 17 4-1 1-1c0-4-2-7-5-9a2 2 52 0 0-2 0l-45 17a1 1 81 0 0-1 1l-2 12q0 2 1 1c14-7 28-13 49-20Zm-335 21 2-2c11-9 23-16 34-23q1-1 0 0c-13 1-28 6-37 17a4 4-20 0 0-1 1c0 4-1 8 1 11l5 6h1l10-9c15-11 31-19 49-27v-1c-5 0-19-1-23 2l-36 24-4 2-1-1Zm66-26c-1 3-9 7-12 9-18 9-29 17-43 26l-5 2a1 1 0 0 0 0 1l8 7v-1q1-3 4-5l16-10 43-23a1 1 80 0 0 1-1v-3l-1-1-11-1Zm120 110v-1l126-68a2 2 0 0 0 1-2q-3-3-1-6 1-2-1-1l-13 7-63 31-53 27-29 14-10 3h-1l1-1 96-49 61-29 10-5 6-4c6-3 12-5 18-10l6-8q2-3-2-2l-53 22-2 2c-7 11-15 16-27 21l-11 2-12 4-9 5-15 8-10 6-56 32-3 3-1-1 11-8q25-16 46-27h1l-1-1-11 1a2 2 19 0 0-2 1l-5 4q-14 6-27 14l-18 10q-4 2-1-2l9-7q18-11 38-18l3-2-14-1-6-1-1 1-5 3-40 23c5 7 11 13 20 14 12 2 25 2 38 0 7-1 15-2 23-5l7-3c11-2 20-8 30-12l4-2 42-23 41-21-7-5-61 34q-28 16-57 29l-10 4Zm-170-65q-2 0 0 1c3 1 7 1 9 5q0 1 0 0l4-4 18-10 32-16v-1l-1-11h-1l-20 12-36 21-5 3Zm327-25-6 7q-5 5-13 7a1 1-35 0 0 0 1l8 8 11-19a5 4-33 0 0 1-3v-1q0-2-1 0Zm-339 60a1 1 0 0 1 0-1c4-5 11-9 17-12l42-23 20-11a1 1 0 0 0 0-1c-2-2-3-7-3-10h-1l-9 7-41 22-3 1-1 1 1 1a1 1 0 0 1-1 2c-5 2-12 8-16 12s-8 9-7 16c1 4 12 6 15 7l4 1h17l26-1 11-1 1-1 17-11 36-17v-1l-10-4h-6c-20 12-44 25-61 33l-2 1q-4 1-1-2l8-6c17-10 34-19 52-27q2-1 0-1c-3 0-13-3-15-6a1 1 0 0 0-2-1l-39 25-22 14-10 5q-3 2-2-1l2-1 25-17 45-27-6-10h-1l-5 3-39 23-25 14-10 5h-1Zm332-25 11-18v-1l-2-10q0-1 0 0l-12 19 3 10Zm-337-18-4-9-1 1-1 3-5 12h1l9-6a1 1 60 0 0 1-1Zm353 16-4-14-1-1-11 19v1l5 12 11-17Zm-352-13-14 10a4 4-4 0 0-1 1l-5 10q-2 2 1 0 11-9 23-16l-4-5Zm-29 43h2l28-19 8-6 4-4a1 1 0 0 0 0-1l-6-6a1 1 46 0 0-1 0l-3 2-24 17-3 3q-1 7-5 14Zm292 10q-2 1-1-1l7-4c19-12 39-22 59-33v-1l-4-4a1 1-35 0 0-1 0l-38 19-46 25-1 1h1c5-1 12 1 15 1q14 0 29-5 3 0 5-2l2-1c12-9 26-16 39-23a1 1-33 0 1 1 0v1q-19 12-39 22l-2 2q-2 1 0 1c15-3 30-10 41-21 3-3 1-5 0-7l-1-5v-1l-63 35-3 1Zm78-19 3 11h1l11-21-3-9h-1l-11 19Zm-260 14q-4 2 0 1h10c5-1 10-2 15-1a2 2 35 0 0 1 0q17-11 35-20 2-1 0-2l-9-4h-1l-3 2-42 21-6 3Zm265 0h-1l3 11h1l12-25-3-7h-1l-11 21Zm-198-10 10-5q2-1 0-1c-4 0-9-2-12-4h-1l-3 3-33 18v1q4 3 5 7a1 1 0 0 0 1 0c10-7 22-13 33-19Zm-176 7c-3 1-5 9-6 12q-1 2 1 1l17-10c4-3 8-5 10-10l2-7-24 14Zm387 16v-1l6-14v-1l-3-8q-7 16-12 23v4l9 28c4 10 7 20 9 31l10 28 19 57 8 22a1 1 0 0 0 1 0q9-5 15-12l12-12a1 1-34 0 0 0-2c-3-9-9-18-13-25l-11-24c-8-18-16-35-24-57l-6-15-12-30-1-4-7 12Zm-105 33 25-31v-1l-16 3-3 1-8 12-2 3h-1l10 52 6 42 13 98 7 45v6a2 2-88 0 0 2 2l22 3 15-1 11-2 10-2 16-6q17-8 30-19c7-6 12-13 17-20l2-5v-1q-3-4-4-9l-17-47-10-32c-7-24-18-48-24-74l-9-28h-1c-1 1-1 3-3 3q-1 1 0 0l2-4 1-3-3-7q0-2-1-1l-11 17-2 1h-1c3-8 8-16 14-21v-1l-7-29h-1c-3 6-15 13-21 16l-2 1-44 50h-1v-1c11-17 25-32 39-47q3-2-1-1c-5 3-13 4-19 5a3 3-75 0 0-2 1c-8 11-17 23-27 32q0 1 0 0h-1Zm-256-49-5 16v1l13-10a1 1 0 0 0 0-1l-8-7v1Zm-29 23q-2 0-1-1l17-12c3-2 3-5 5-7q1-2-1-1l-23 14q-2 1-2 3c-9 24-20 45-31 67l-5 9c-14 22-25 49-37 68-1 3-1 6 1 9 9 12 17 24 29 35a1 1-61 0 0 1-1l13-44 16-47 19-55 10-35-8 6q-3 1-1-1c2-3 6-5 10-8l4-8v-1l-13 8-3 2Zm19 10c10-8 21-15 32-21l-11-4-17 12-1 1-3 12Zm32-19-30 20-2 2a1 1-7 0 0-1 0l-4 15q-1 3 1 1c7-8 15-14 26-20l25-15 2-1-1-1q-7 0-13-2h-1l-2 1Zm-32 52v-1l12-10c17-11 33-23 51-33l10-6v-1l-17 1c-3 0-9 4-12 6l-48 31h-1l-1 1-9 30-27 80-5 14-9 29-4 11v19a157 157 0 0 0 108 49c8 1 17 0 25-1v-4c1-16 2-32 5-48l2-11c2-19 7-37 9-55l4-33 2-17 3-19 7-36 1-3h-1l-9 6h-1v-1q5-5 11-8a1 1-10 0 0 0-1l2-9h-1l-18 12h-1c4-4 15-15 20-15v-1l2-12q0-1 0 0l-14 10-24 15h-1q6-7 13-11l27-18 3-11c-23 17-42 32-64 45a1 1 58 0 1-1 0v-1l42-32 19-13q2-1 0-1l-3 1h-7a6 6-66 0 0-3 1l-7 5q-32 23-65 44l-4 3-1-1h1l15-13 58-38q2-1-1-1l-14 1a5 4 25 0 0-2 1l-31 20c-15 10-30 21-46 30Zm120-34 7-5q2-1 0-3-5-4-7-9h-1l-3 29q0 2 1 1 11-9 23-14l-10-4h-1l-7 5-2 1v-1Zm150-12-12-2 3 16 9-14Zm-85 62q14-17 29-31l28-28c-5 2-12 3-15 7l-60 62h-1l11-14 47-49q1 0 0 0c-4 1-8 2-11 5l-16 14-9 8-40 37-3 2q-1 0 0 0l3-5c13-14 27-26 41-39l22-17q3-3-1-2l-9 2c-4 1-7 5-10 7l-30 25-14 11-10 7a1 1-39 0 1-1 0l6-6 45-37 8-6q2-1-1-1l-3 1h-12a5 5-63 0 0-2 1l-24 17-35 26-6 4c-2 2-3 7-3 9-4 26-8 51-10 76l-6 35-6 37-1 9-3 28c0 3-2 4 0 7l5 11c2 4 11 16 16 17l15 2 26 4 23 2 10 1h8c18 2 37 2 56 3 3 0 6 0 8-2l19-14 21-20v-1l-7-32c-5-22-7-44-11-74q-8-61-18-121l-7 5q-3 2 0-1l6-6a3 3 63 0 0 0-3l-1-6v-1l-16 15q-5 4-1-1 7-9 15-16l1-2-1-6h-1l-8 9-26 24-7 5q-3 2-1 0c13-15 27-27 41-41l1-2-2-9v-1l1-1h-1l-29 29-25 25-7 7-1-1Zm-49-47-19 13a3 3 0 0 0-1 2l-2 12 4-3 24-18 12-7-11-2h-1l-6 3Zm-20 29c-2 1-3 1-3 3l-2 13q0 2 1 1 6-6 13-10l26-20 22-15q2-1 0-1h-16l-41 29Zm165 261 38-1c17 0 35-3 53-4l28-5 38-6 54-13 10-3 44-15 21-8q21-8 35-17c13-8 28-16 40-26 8-6 12-11 17-20l8-22v-7l-5-11-2-4-19-17-21-13-23-13q-24-13-50-21l-17-6-14-3-10-2-16-4-13-2-13-3-46-7q-1-1 0 0l14 32c6 16 14 31 21 46 1 2 3 3 3 6l1 5a2 2-26 0 1 0 2l-13 13c-6 6-16 11-24 15a1 1 0 0 0-1 0l9 26c2 3 2 7 3 10v6l-8 12-16 17q-15 12-33 19l-13 5-25 5h-21l-16-4a1 1 0 0 0-1 0c0 3 1 5-1 7-2 5-5 8-9 11-7 7-17 13-25 18q-2 2 1 1h8l9 1Zm-351-93c-4-6-1-11 1-17a1 1 0 0 0 0-1c-6-3-11-7-16-12-9-10-16-21-23-32q-2-2-2-6l1-4c7-12 13-25 18-37l17-30v-1q-11 5-15 5l-16 2-7 1c-28 3-50 8-81 16-10 2-18 5-29 9-10 3-19 7-28 13-8 4-14 12-18 20l-3 5 1 8 2 12c1 4 4 10 7 13l22 15a470 470 0 0 0 102 48l19 7 20 7 61 13 24 4 8 1 18 4c10 1 19 4 29 6l28 5 22 4v-1q-8-6-13-15a1 1 0 0 0-2 0l-4 1a186 186 0 0 1-121-36c-8-6-14-11-18-19l-4-8Zm302 232 5-3 13-7 46-28c11-8 22-14 34-21l49-28 35-20q18-9 23-13 21-13 44-23l4-2v-1l-8 2-23 6-28 5-20 3-32 6-10 1c-31 4-57 4-92 4l-60-1-53-3-20-2-73-11-47-9-18-3-43-8-29-7-10-2-27-6-33-11q-2-1 0 1l56 38c18 13 34 27 53 39l40 25 28 17 29 19 60 38 11 6c6 3 12 8 19 10 9 2 18 3 28 2 11-1 20-4 30-7l19-6Zm3 402-1-1h-1l-30 6-15 1-31 1h-39c-6 0-18-1-22-4h-1l-28 4-19 3-18 6-36 8-27 6-13 3-17 7q-5 2-9 6a1 1 0 0 0 0 1l35 5 10 1 46 1 43 3 15 1h15l28 2h45q9 1 20-1h8l30 1h12l56 6 23 1h40c20-1 38-3 58-7l9-2a1 1-32 0 0 0-2q-6-6-13-9c-12-6-24-11-38-15l-39-12-17-4-39-10-38-8-1 2h-1Z"/>
  <path fill="#0c0c00" fill-opacity=".9" d="M803 461c2-1 4-5 5-7 5-8 14-16 19-24l25-31 10-11 1-1q3-1 1 1l-17 21q-19 26-41 50l-3 3v-1Zm67-61c-5 9-11 16-17 23l-10 10q-3 2 0-1l26-33 1 1Z"/>
</svg>