<svg xmlns="http://www.w3.org/2000/svg" xml:space="preserve" id="Layer_1" x="0" y="0" version="1.1" viewBox="0 0 1448 1448">
  <style>
    .st0{fill:#0c0c00;fill-opacity:.9}
  </style>
  <path d="M175 762c-54-15-22-43 12-59 23-17 47-32 63-56 6-9 14-5 22 0 34 15 22 50 55 33-11-13-24-29-4-43-6-5-13-12-13-21 5-26 26-43 45-58-3-25 7-50 24-68 20-23 47-57 82-36 34 7 65 7 81 43 31 0 21-42 73-36 47 6 140 14 169 54 13 18 19 44 19 66 3 9-11 38 0 33 9 0 24-2 33 0 0 1 9 3 9 1 2-40 63-11 93-14 16 2 34 5 44 19 18 0 47 8 65 10 2 6 31-9 34-9 12-8 43-16 56-19 28-4 31 45 38 42 76 8 155 41 207 92 14 16 27 42 21 63-10 9-25 12-38 18-22 163-403 203-539 226-86 13-177 19-264 26-83 2-171 15-254 3-56-12-128-25-174-61-26-26-60-42-84-67-2-76 71-137 125-182zm271-302c-19 24-63 68-83 92-7 8 31-11 40-7 65 15 39-82 110-55 6 1-7-9-6-11-1 1-8 7-5 2 9-9-14-16-22-17-13 15-66 67-79 79 16-27 66-60 73-79-22-2-39-21-52 2-21 24-56 50-59 83 23-30 56-67 83-89zm181 9c-16-5-27 7-36 17 18 0 22 2 36-17zm-22-1c-14 2-35 13-38 25 22-3 25-8 38-25zm60 11c-18 12-23 14-1 24l22-23c-17-4-39-10-57-9-26 24-3 11 16 22 3-1 17-21 20-14zm28 3c-8-2-21 17-27 22 2 5 12 14 16 18 3 3 31-35 33-35l-22-5zm26 5c-3 0-32 35-34 36-1 1 10 9 10 8 4-5 38-33 43-38l-19-6zm-225 23c32-34-32-21-32 37-1 8 30-37 32-37zm43 42c6-5 18-4 26-5 21-14 36-37 55-54-37-6-65 39-81 59zm79-31c10-13 35-19 6-29 0 2-18 20-20 22-8 9-19 21-34 34 4 4 12 5 16 10 6-10 24-29 32-37zm151-13c-13 15-27 29-44 41-2 1 14 12 14 12 13-13 26-29 42-39-4-19-22-27-40-28-28 34-62 31-17 55 15-11 30-34 45-41zm-259-12c-6 20-39 41-38 55 1 0 17 9 18 8 0-2 39-44 41-47 17-15-6-8-21-16zm32 8c-14 22-34 39-49 58 6 2 7 16 14 8 26-13 50-44 68-66 4-5-27 0-33 0zm64 54c16-16 34-28 49-42-4-5-7-12-13-14-10 13-45 46-54 58 10 13 10 8 18-2zm13 22c-5 3 2 5 4 7l36-37c20-19 22-15-1-32l-58 53c-2 4 10 9 14 10 1-1 5-5 5-1zm164-55c-15 11-29 25-41 39l15 19c2 1 31-29 32-29 1-8-4-20-6-29zm-328 3c0-4-19 17-18 18 22 0 23 7 18-18zm224 6-53 54c6 5 8 19 9 22 15-17 45-52 63-64 0 2-19-16-19-12zm-47 85c8-2 24-2 32-5 5-12 80-58 36-66-19 14-54 52-68 71zm-271 20c8-20 49-68 63-87-11 0-32 1-38 11-11 13-35 57-46 63 8-23 35-47 44-66-16 9-28 19-40 33-30 31 6 51 38 54l14-21c19-22 38-50 59-72-7 0-23-4-29-1-16 21-48 66-65 86zm99-82c-22 20-49 66-77 89 11 5 19 8 25-5 22-13 30-43 51-55l20-21c-4-3-13-9-19-8zm59 64c9-20 41-43 58-59-6-18-27 3-33 11-13 18-40 35-51 49 51 11 64-13 99-45 8 1-40 40-41 43 12 8 10-3 26-3 31-38 42-21 3-53-20 18-42 42-61 57zm239-34 4 16c10-15 32-23 28-43-8-1-21 23-32 27zm-274 45c-21 26-35 23 7 30 10 4-10-9-7-17-4-34 59-64 67-85-41 21-74 48-102 85 9 29 23-13 35-13zm184-18c3 3 16 2 20 2 4 1 35-35 38-36 7-5-2-11-6-15-19 13-33 34-52 49zm-174-36c4-1-13-10-13-11 0 1-19 19-18 20l31-9zm268 46c7-10 34-31 27-45-15 15-31 21-27 45zm-69-7c6 0 13 10 17 8 9-16 36-25 21-45-11 14-26 24-38 37zm-81-30c-5 4-29 27-34 30 5 2 16 8 22 9 13-9 25-26 12-39zm-135 6c-22 0-34 30-29 48 14-20 34-39 50-53l-21 5zm257 41c5-7 3-23 3-31l-27 24c2 4 6 10 9 12 1-1 16-2 15-5zm50-28-26 29c18 10 23-15 26-29zm68 10-1 7c1 4 14-16 15-16-2-2-12 6-14 9zm1 10c1 0 7 18 9 13l27-29c-16-7-29 2-36 16zm66-12c-33-12-35 8-56 28 1 0 10 14 11 13l45-41zm-29 59c17-20 40-37 57-56l-21-4-50 45c0 2 13 13 14 15zm207 15c14-13 92-89 29-70-15 17-51 48-68 63 1 2-35 28-26 28 33 6 47-31 70-48l45-40c-13 27-68 64-86 85 52-4 114-99 57-36-5 4-15 17-21 18zm-128-66c-6-2-15-7-18-4-1 3-62 54-59 57 1 0 13 10 13 8 14-17 54-47 64-61zm62 58c12-15 28-28 43-39-33 1-50 31-44 63 25-27 63-59 91-83-27 1-67 43-90 59zm-597-58c-1-3-4 4-5 4 2-1 5-1 5-4zM85 954c72 12 146-34 217-38 193-31 388-67 584-81 128-16 260-24 389-28 100-7 177-13 50-95-37-18-80-38-121-50-7-3-33-6-33-15-14 32-83 75-119 75-45 5-43-70-15-84-17-5-34-6-51-7 12 59-10 98-74 75-30-15-56-46-65-79l-29-1c-31-7-21 7-35 23 28 49-11 89-58 104-62 12-107 123-175 40 4 42-38 62-75 49-28-13-47-49-76-61-32-9-72-28-70-68 2-30 14-28-17-19 19 57-36 97-88 79-31-9-30-7-55 13-25 21-147 155-84 168zm843-271c7-9 45-44 54-49l-11-10c-17 13-49 45-66 60 9 10 30 9 42 6 10-13 26-23 37-36 0-1 0-18-2-18-17 17-33 35-54 47zm-360-35c2-4 14-18 18-18 0-2-3-5-5-5-21 8-14 5-13 23zm82-21c-62 4-34 15-55 37-8 10-36 29-39 42l-3 16c25-24 50-50 76-73 0 1 24-24 23-19-12 24-112 87-98 113 48-31 84-79 126-117-6-3-23 0-30 1zm48 9c6-1-34 35-33 35 9-3 44-15 38-35-3-12-12-9-22-10-19 24-58 59-80 82-12 11 34-24 39-26 19-4 44-36 58-46zm-187 29c1 0 28 14 29 13 0-12 27-60 0-44-3 1-13 0-14 3l-22 23c-4 2 6 4 7 5zm-13-18c2 25 16-7 27-13-12-9-30-7-27 13zm90-14c1-5-19 20-20 19-5 5-5 13-9 19 5 1 40-23 29-38zm-179 34c-4 20 21-22 23-21-1-2-1-15-4-12-11 8-19 18-19 33zm-80 2c0-1 17-22 16-23-14-10-23 0-22 16 0 7 7 16 14 16 4-13 17-25 28-27l-18-4c-1 1-15 23-18 22zm416-20c-37 58-95 116-142 167 27-1 40-33 62-46 32-30 74-76 100-110-10-19-28-20-47-14 2 16-16 26-28 31l-37 44c-86 106-84 92-2-3-1 0 40-41 34-40-22 8-46 17-61 38-23 39-104 73-24 99 44-50 104-113 145-166zm-325 46 28-38c-6-1-10-6-14-9l-22 26c-6 5 4 15 6 20 10 12 35 9 50 5 10-2 24-25 31-31-4-4-20-4-26-5-8 0-15-3-23-4l-30 36zm-72 4c1 0-4 19-1 17 12-19 31-34 44-53-18-23-42 17-43 36zm-77-39-68 98 16 5c16 5 29 1 36-14 13-23 51-44 35-72-23 24-44 62-68 85 9-18 56-71 65-89-12-18-12-22-34-9-22 24-50 61-67 89-5 3 10 4 11 5 21-27 48-75 74-98zm712 1c6-8-31 28-31 28 16-3 29-11 31-28zm-582 25c-11 32-75 62-16 81 14-18 37-49 52-56-16 19-34 37-49 57-2 2 13 3 13 4 2 2 5-5 6-6 90-103 10-15-13-101-12 22-33 36-47 61 2 49 45-38 54-40zm299 54c0 1-26 26-16 19 40-15 91-34 84-86-1 0 0-8-2-7l-66 74zm-168-58c-1 4-14 21-15 23 2 0 7 3 8 1 0-1 16-16 12-16-3 1-2-5-1-6-3 0-3-3-3-4l-30-12-24 29c26 6 24-3 37-21 2 0 4 1 3 3-5 12-27 21-4 25 4-2 13-26 17-22zm41 0c-4 0-15 9-19 10-2 16 16-10 19-10zm-46 27c10 6 14 13 14-4 0-1 1-15-2-10 0 1-13 13-12 14zm-231-10c-12 23-35 44-45 63 26 1 31-26 46-41 0-4 2-23-1-22zm-125 43c-2 11 5 9 12 12 6-19 24-38 33-53-14 14-43 18-45 41zm283 24c11-19 79-75 28-55-14 18-39 53-55 70 10 17 17-7 27-15zm13-11-28 34 9 8c13-9 26-32 39-44l34-41c1-2-12-2-13-3-2-1-39 45-41 46zm13-45-24 2c0 2-28 34-29 36-19 28-32 20-2 33 16-22 40-50 55-71zm3 53c0 2-35 37-31 39 1 0 12 13 14 11 16-26 48-63 67-87 2 0 7-3 4-5-19-14-21 4-32 16l-22 26zm138-48c-10 10-79 45-62 67l62-67zm-93 50c-14 21-33 41-50 61-1 1 9 8 9 8 16-15 29-34 43-51 0-4 1-17 3-20 0-9 2-28 4-37l-10 14-61 75c-1 1 10 10 10 10 15-14 36-47 52-60zm-233-35-16 21c3 1 20-18 16-21zm259 38 1-1c0-1 16-16 11-15-20-2-23-14-12 16zm-49 70c10-15 25-31 24-50l-38 46c0 5 12 4 15 5 9 2 22-25 17-22-3 3-14 20-18 21zm-348 169c149 71 319 47 478 37 135-11 268-30 400-56 72-19 151-33 217-68 21-11 50-29 66-48 16-10 50-72 14-39-70 48-154 76-236 95-71 21-153 39-227 45-149 18-313 36-465 38-94 5-193-14-285-33-1 5 30 23 38 29zm121-9c157 9 318-9 474-25 195-20 403-42 572-150-39 3-77 9-121 8-109 38-226 62-341 76-66 9-139 16-205 20-109 11-226 26-336 27-25 0-79-4-97-3-28 9-62 16-91 20l-7 2c49 8 103 20 152 25zm-34-53h-1c129 3 268-17 397-27 175-11 351-35 519-84-120 0-304 29-444 40-68 9-141 15-208 31-88 11-177 26-263 40z" class="st0"/>
  <path d="M608 650c-5-1 13-19 16-18l-16 18zm-87 13c7-8 17-27 26-27 1 1-33 38-26 27zm-68 36c-4-3 21-32 26-33 1 1-26 32-26 33zm369 18c-15-22 27-53 44-38 20 25-26 55-44 38zm26-15c13-3 29-25 7-14 0 2-22 24-7 14zm2-14c-8 3-33 19-14 19 3 1 16-17 14-19zm-83-1c-14 22-27 39-46 55 17-17 26-38 46-55zm460 41c7 9-3 13-10 13-22 7-34-11-41-30-9-18 20-9 29-6 10 4 18 12 22 23zm-30-17c-10-2-19 0-11 11 1 1 10-11 11-11zm16 7c0 2-7 9-8 10 25 1 13-14-4-16-10 7-21 19 1 16 1 0 9-15 11-10zm-797-15c-8 14-32 42-42 56 5-14 30-45 42-56zm747 40c-16 25-71-4-45-28 22-18 41 12 45 28zm-33-19c-7 2-16 12-6 14 0-1 17-17 16-18l-10 4zm-3 13c-2 4 11 5 12 3 3-5 18-15 6-19-1-2-17 16-18 16zm25-8c0 1-12 13-8 11s16-8 8-11zm-855 81c-17-13 13-48 28-35 29 17-3 62-28 35zm7-3c43-59-15-18 0 4 15 4 19-18 17-26-1 0-15 24-17 22zm-82 35c-15-8-45-26-16-37 14-3 35-17 47-5 24 8-16 55-31 42zm28-39c-12-4-23 26-31 33-2 8 18-11 21-13l10-20zm-13 3c-10-2-22 18-28 24 11 15 20-17 28-25v1zm-21 5c-7 0-21 12-9 17-1-1 21-23 9-17z" class="st0"/>
</svg>