<svg width="1480" height="1358" viewBox="0 0 1480 1358" fill="none" xmlns="http://www.w3.org/2000/svg">
<g opacity="0.4" filter="url(#filter0_d_1_326)">
<path d="M44.4995 1140.39C52.3734 1133.14 67.5918 1133.26 75.4898 1140.39C81.9716 1146.24 77.8143 1170.9 76.115 1179.55C75.7664 1181.33 74.1918 1182.57 72.3665 1182.57H47.6224C45.7973 1182.57 44.2227 1181.33 43.8743 1179.55C42.179 1170.91 38.0399 1146.34 44.4995 1140.39Z" fill="url(#paint0_linear_1_326)"/>
<path d="M60.5784 1187.74C60.2682 1188.09 59.7213 1188.09 59.411 1187.74L53.2075 1180.79C52.9228 1180.48 52.9526 1179.99 53.2808 1179.71C58.2214 1175.58 61.361 1175.94 66.6178 1179.72C66.9856 1179.98 67.0396 1180.51 66.7384 1180.84L60.5784 1187.74Z" fill="#FFF5E3"/>
</g>
<g opacity="0.4" filter="url(#filter1_d_1_326)">
<path d="M1340.5 1190.39C1348.37 1183.14 1363.59 1183.26 1371.49 1190.39C1377.97 1196.24 1373.81 1220.9 1372.11 1229.55C1371.77 1231.33 1370.19 1232.57 1368.37 1232.57H1343.62C1341.8 1232.57 1340.22 1231.33 1339.87 1229.55C1338.18 1220.91 1334.04 1196.34 1340.5 1190.39Z" fill="url(#paint1_linear_1_326)"/>
<path d="M1356.58 1237.74C1356.27 1238.09 1355.72 1238.09 1355.41 1237.74L1349.21 1230.79C1348.92 1230.48 1348.95 1229.99 1349.28 1229.71C1354.22 1225.58 1357.36 1225.94 1362.62 1229.72C1362.99 1229.98 1363.04 1230.51 1362.74 1230.84L1356.58 1237.74Z" fill="#FFF5E3"/>
</g>
<g opacity="0.4" filter="url(#filter2_d_1_326)">
<path d="M1104.5 1050.39C1112.37 1043.14 1127.59 1043.26 1135.49 1050.39C1141.97 1056.24 1137.81 1080.9 1136.11 1089.55C1135.77 1091.33 1134.19 1092.57 1132.37 1092.57H1107.62C1105.8 1092.57 1104.22 1091.33 1103.87 1089.55C1102.18 1080.91 1098.04 1056.34 1104.5 1050.39Z" fill="url(#paint2_linear_1_326)"/>
<path d="M1120.58 1097.74C1120.27 1098.09 1119.72 1098.09 1119.41 1097.74L1113.21 1090.79C1112.92 1090.48 1112.95 1089.99 1113.28 1089.71C1118.22 1085.58 1121.36 1085.94 1126.62 1089.72C1126.99 1089.98 1127.04 1090.51 1126.74 1090.84L1120.58 1097.74Z" fill="#FFF5E3"/>
</g>
<g opacity="0.4" filter="url(#filter3_d_1_326)">
<path d="M359.499 1050.39C367.373 1043.14 382.592 1043.26 390.49 1050.39C396.972 1056.24 392.814 1080.9 391.115 1089.55C390.766 1091.33 389.192 1092.57 387.367 1092.57H362.622C360.797 1092.57 359.223 1091.33 358.874 1089.55C357.179 1080.91 353.04 1056.34 359.499 1050.39Z" fill="url(#paint3_linear_1_326)"/>
<path d="M375.578 1097.74C375.268 1098.09 374.721 1098.09 374.411 1097.74L368.208 1090.79C367.923 1090.48 367.953 1089.99 368.281 1089.71C373.221 1085.58 376.361 1085.94 381.618 1089.72C381.986 1089.98 382.04 1090.51 381.738 1090.84L375.578 1097.74Z" fill="#FFF5E3"/>
</g>
<g opacity="0.4" filter="url(#filter4_d_1_326)">
<path d="M609.499 1170.39C617.373 1163.14 632.592 1163.26 640.49 1170.39C646.972 1176.24 642.814 1200.9 641.115 1209.55C640.766 1211.33 639.192 1212.57 637.367 1212.57H612.622C610.797 1212.57 609.223 1211.33 608.874 1209.55C607.179 1200.91 603.04 1176.34 609.499 1170.39Z" fill="url(#paint4_linear_1_326)"/>
<path d="M625.578 1217.74C625.268 1218.09 624.721 1218.09 624.411 1217.74L618.208 1210.79C617.923 1210.48 617.953 1209.99 618.281 1209.71C623.221 1205.58 626.361 1205.94 631.618 1209.72C631.986 1209.98 632.04 1210.51 631.738 1210.84L625.578 1217.74Z" fill="#FFF5E3"/>
</g>
<g opacity="0.4" filter="url(#filter5_d_1_326)">
<path d="M909.499 1090.39C917.373 1083.14 932.592 1083.26 940.49 1090.39C946.972 1096.24 942.814 1120.9 941.115 1129.55C940.766 1131.33 939.192 1132.57 937.367 1132.57H912.622C910.797 1132.57 909.223 1131.33 908.874 1129.55C907.179 1120.91 903.04 1096.34 909.499 1090.39Z" fill="url(#paint5_linear_1_326)"/>
<path d="M925.578 1137.74C925.268 1138.09 924.721 1138.09 924.411 1137.74L918.208 1130.79C917.923 1130.48 917.953 1129.99 918.281 1129.71C923.221 1125.58 926.361 1125.94 931.618 1129.72C931.986 1129.98 932.04 1130.51 931.738 1130.84L925.578 1137.74Z" fill="#FFF5E3"/>
</g>
<g opacity="0.4" filter="url(#filter6_d_1_326)">
<path d="M1019.5 1250.39C1027.37 1243.14 1042.59 1243.26 1050.49 1250.39C1056.97 1256.24 1052.81 1280.9 1051.11 1289.55C1050.77 1291.33 1049.19 1292.57 1047.37 1292.57H1022.62C1020.8 1292.57 1019.22 1291.33 1018.87 1289.55C1017.18 1280.91 1013.04 1256.34 1019.5 1250.39Z" fill="url(#paint6_linear_1_326)"/>
<path d="M1035.58 1297.74C1035.27 1298.09 1034.72 1298.09 1034.41 1297.74L1028.21 1290.79C1027.92 1290.48 1027.95 1289.99 1028.28 1289.71C1033.22 1285.58 1036.36 1285.94 1041.62 1289.72C1041.99 1289.98 1042.04 1290.51 1041.74 1290.84L1035.58 1297.74Z" fill="#FFF5E3"/>
</g>
<g opacity="0.4" filter="url(#filter7_d_1_326)">
<path d="M429.499 1270.39C437.373 1263.14 452.592 1263.26 460.49 1270.39C466.972 1276.24 462.814 1300.9 461.115 1309.55C460.766 1311.33 459.192 1312.57 457.367 1312.57H432.622C430.797 1312.57 429.223 1311.33 428.874 1309.55C427.179 1300.91 423.04 1276.34 429.499 1270.39Z" fill="url(#paint7_linear_1_326)"/>
<path d="M445.578 1317.74C445.268 1318.09 444.721 1318.09 444.411 1317.74L438.208 1310.79C437.923 1310.48 437.953 1309.99 438.281 1309.71C443.221 1305.58 446.361 1305.94 451.618 1309.72C451.986 1309.98 452.04 1310.51 451.738 1310.84L445.578 1317.74Z" fill="#FFF5E3"/>
</g>
<defs>
<filter id="filter0_d_1_326" x="1" y="1095" width="118" height="133" filterUnits="userSpaceOnUse" color-interpolation-filters="sRGB">
<feFlood flood-opacity="0" result="BackgroundImageFix"/>
<feColorMatrix in="SourceAlpha" type="matrix" values="0 0 0 0 0 0 0 0 0 0 0 0 0 0 0 0 0 0 127 0" result="hardAlpha"/>
<feOffset/>
<feGaussianBlur stdDeviation="20"/>
<feComposite in2="hardAlpha" operator="out"/>
<feColorMatrix type="matrix" values="0 0 0 0 1 0 0 0 0 0.54 0 0 0 0 0 0 0 0 0.8 0"/>
<feBlend mode="normal" in2="BackgroundImageFix" result="effect1_dropShadow_1_326"/>
<feBlend mode="normal" in="SourceGraphic" in2="effect1_dropShadow_1_326" result="shape"/>
</filter>
<filter id="filter1_d_1_326" x="1297" y="1145" width="118" height="133" filterUnits="userSpaceOnUse" color-interpolation-filters="sRGB">
<feFlood flood-opacity="0" result="BackgroundImageFix"/>
<feColorMatrix in="SourceAlpha" type="matrix" values="0 0 0 0 0 0 0 0 0 0 0 0 0 0 0 0 0 0 127 0" result="hardAlpha"/>
<feOffset/>
<feGaussianBlur stdDeviation="20"/>
<feComposite in2="hardAlpha" operator="out"/>
<feColorMatrix type="matrix" values="0 0 0 0 1 0 0 0 0 0.54 0 0 0 0 0 0 0 0 0.8 0"/>
<feBlend mode="normal" in2="BackgroundImageFix" result="effect1_dropShadow_1_326"/>
<feBlend mode="normal" in="SourceGraphic" in2="effect1_dropShadow_1_326" result="shape"/>
</filter>
<filter id="filter2_d_1_326" x="1061" y="1005" width="118" height="133" filterUnits="userSpaceOnUse" color-interpolation-filters="sRGB">
<feFlood flood-opacity="0" result="BackgroundImageFix"/>
<feColorMatrix in="SourceAlpha" type="matrix" values="0 0 0 0 0 0 0 0 0 0 0 0 0 0 0 0 0 0 127 0" result="hardAlpha"/>
<feOffset/>
<feGaussianBlur stdDeviation="20"/>
<feComposite in2="hardAlpha" operator="out"/>
<feColorMatrix type="matrix" values="0 0 0 0 1 0 0 0 0 0.54 0 0 0 0 0 0 0 0 0.8 0"/>
<feBlend mode="normal" in2="BackgroundImageFix" result="effect1_dropShadow_1_326"/>
<feBlend mode="normal" in="SourceGraphic" in2="effect1_dropShadow_1_326" result="shape"/>
</filter>
<filter id="filter3_d_1_326" x="316" y="1005" width="118" height="133" filterUnits="userSpaceOnUse" color-interpolation-filters="sRGB">
<feFlood flood-opacity="0" result="BackgroundImageFix"/>
<feColorMatrix in="SourceAlpha" type="matrix" values="0 0 0 0 0 0 0 0 0 0 0 0 0 0 0 0 0 0 127 0" result="hardAlpha"/>
<feOffset/>
<feGaussianBlur stdDeviation="20"/>
<feComposite in2="hardAlpha" operator="out"/>
<feColorMatrix type="matrix" values="0 0 0 0 1 0 0 0 0 0.54 0 0 0 0 0 0 0 0 0.8 0"/>
<feBlend mode="normal" in2="BackgroundImageFix" result="effect1_dropShadow_1_326"/>
<feBlend mode="normal" in="SourceGraphic" in2="effect1_dropShadow_1_326" result="shape"/>
</filter>
<filter id="filter4_d_1_326" x="566" y="1125" width="118" height="133" filterUnits="userSpaceOnUse" color-interpolation-filters="sRGB">
<feFlood flood-opacity="0" result="BackgroundImageFix"/>
<feColorMatrix in="SourceAlpha" type="matrix" values="0 0 0 0 0 0 0 0 0 0 0 0 0 0 0 0 0 0 127 0" result="hardAlpha"/>
<feOffset/>
<feGaussianBlur stdDeviation="20"/>
<feComposite in2="hardAlpha" operator="out"/>
<feColorMatrix type="matrix" values="0 0 0 0 1 0 0 0 0 0.54 0 0 0 0 0 0 0 0 0.8 0"/>
<feBlend mode="normal" in2="BackgroundImageFix" result="effect1_dropShadow_1_326"/>
<feBlend mode="normal" in="SourceGraphic" in2="effect1_dropShadow_1_326" result="shape"/>
</filter>
<filter id="filter5_d_1_326" x="866" y="1045" width="118" height="133" filterUnits="userSpaceOnUse" color-interpolation-filters="sRGB">
<feFlood flood-opacity="0" result="BackgroundImageFix"/>
<feColorMatrix in="SourceAlpha" type="matrix" values="0 0 0 0 0 0 0 0 0 0 0 0 0 0 0 0 0 0 127 0" result="hardAlpha"/>
<feOffset/>
<feGaussianBlur stdDeviation="20"/>
<feComposite in2="hardAlpha" operator="out"/>
<feColorMatrix type="matrix" values="0 0 0 0 1 0 0 0 0 0.54 0 0 0 0 0 0 0 0 0.8 0"/>
<feBlend mode="normal" in2="BackgroundImageFix" result="effect1_dropShadow_1_326"/>
<feBlend mode="normal" in="SourceGraphic" in2="effect1_dropShadow_1_326" result="shape"/>
</filter>
<filter id="filter6_d_1_326" x="976" y="1205" width="118" height="133" filterUnits="userSpaceOnUse" color-interpolation-filters="sRGB">
<feFlood flood-opacity="0" result="BackgroundImageFix"/>
<feColorMatrix in="SourceAlpha" type="matrix" values="0 0 0 0 0 0 0 0 0 0 0 0 0 0 0 0 0 0 127 0" result="hardAlpha"/>
<feOffset/>
<feGaussianBlur stdDeviation="20"/>
<feComposite in2="hardAlpha" operator="out"/>
<feColorMatrix type="matrix" values="0 0 0 0 1 0 0 0 0 0.54 0 0 0 0 0 0 0 0 0.8 0"/>
<feBlend mode="normal" in2="BackgroundImageFix" result="effect1_dropShadow_1_326"/>
<feBlend mode="normal" in="SourceGraphic" in2="effect1_dropShadow_1_326" result="shape"/>
</filter>
<filter id="filter7_d_1_326" x="386" y="1225" width="118" height="133" filterUnits="userSpaceOnUse" color-interpolation-filters="sRGB">
<feFlood flood-opacity="0" result="BackgroundImageFix"/>
<feColorMatrix in="SourceAlpha" type="matrix" values="0 0 0 0 0 0 0 0 0 0 0 0 0 0 0 0 0 0 127 0" result="hardAlpha"/>
<feOffset/>
<feGaussianBlur stdDeviation="20"/>
<feComposite in2="hardAlpha" operator="out"/>
<feColorMatrix type="matrix" values="0 0 0 0 1 0 0 0 0 0.54 0 0 0 0 0 0 0 0 0.8 0"/>
<feBlend mode="normal" in2="BackgroundImageFix" result="effect1_dropShadow_1_326"/>
<feBlend mode="normal" in="SourceGraphic" in2="effect1_dropShadow_1_326" result="shape"/>
</filter>
<linearGradient id="paint0_linear_1_326" x1="59.9947" y1="1141.01" x2="59.9947" y2="1188" gradientUnits="userSpaceOnUse">
<stop stop-color="#FE772B"/>
<stop offset="0.857292" stop-color="#FBDB36"/>
<stop offset="1" stop-color="#FFF9DC"/>
</linearGradient>
<linearGradient id="paint1_linear_1_326" x1="1355.99" y1="1191.01" x2="1355.99" y2="1238" gradientUnits="userSpaceOnUse">
<stop stop-color="#FE772B"/>
<stop offset="0.857292" stop-color="#FBDB36"/>
<stop offset="1" stop-color="#FFF9DC"/>
</linearGradient>
<linearGradient id="paint2_linear_1_326" x1="1119.99" y1="1051.01" x2="1119.99" y2="1098" gradientUnits="userSpaceOnUse">
<stop stop-color="#FE772B"/>
<stop offset="0.857292" stop-color="#FBDB36"/>
<stop offset="1" stop-color="#FFF9DC"/>
</linearGradient>
<linearGradient id="paint3_linear_1_326" x1="374.995" y1="1051.01" x2="374.995" y2="1098" gradientUnits="userSpaceOnUse">
<stop stop-color="#FE772B"/>
<stop offset="0.857292" stop-color="#FBDB36"/>
<stop offset="1" stop-color="#FFF9DC"/>
</linearGradient>
<linearGradient id="paint4_linear_1_326" x1="624.995" y1="1171.01" x2="624.995" y2="1218" gradientUnits="userSpaceOnUse">
<stop stop-color="#FE772B"/>
<stop offset="0.857292" stop-color="#FBDB36"/>
<stop offset="1" stop-color="#FFF9DC"/>
</linearGradient>
<linearGradient id="paint5_linear_1_326" x1="924.995" y1="1091.01" x2="924.995" y2="1138" gradientUnits="userSpaceOnUse">
<stop stop-color="#FE772B"/>
<stop offset="0.857292" stop-color="#FBDB36"/>
<stop offset="1" stop-color="#FFF9DC"/>
</linearGradient>
<linearGradient id="paint6_linear_1_326" x1="1034.99" y1="1251.01" x2="1034.99" y2="1298" gradientUnits="userSpaceOnUse">
<stop stop-color="#FE772B"/>
<stop offset="0.857292" stop-color="#FBDB36"/>
<stop offset="1" stop-color="#FFF9DC"/>
</linearGradient>
<linearGradient id="paint7_linear_1_326" x1="444.995" y1="1271.01" x2="444.995" y2="1318" gradientUnits="userSpaceOnUse">
<stop stop-color="#FE772B"/>
<stop offset="0.857292" stop-color="#FBDB36"/>
<stop offset="1" stop-color="#FFF9DC"/>
</linearGradient>
</defs>
</svg>
