<svg width="1280" height="1400" viewBox="0 0 1280 1400" fill="none" xmlns="http://www.w3.org/2000/svg">
<path d="M1118.43 1106.34C1130.66 1095.13 1154.29 1095.32 1166.55 1106.34C1176.61 1115.39 1170.16 1153.54 1167.52 1166.93C1166.98 1169.67 1164.53 1171.6 1161.7 1171.6H1123.28C1120.45 1171.6 1118 1169.67 1117.46 1166.93C1114.83 1153.56 1108.4 1115.54 1118.43 1106.34Z" fill="url(#paint0_linear_1_329)"/>
<path d="M1143.4 1179.6C1142.92 1180.13 1142.07 1180.13 1141.59 1179.6L1131.95 1168.85C1131.51 1168.36 1131.56 1167.6 1132.07 1167.18C1139.74 1160.78 1144.61 1161.34 1152.77 1167.19C1153.35 1167.6 1153.43 1168.41 1152.96 1168.93L1143.4 1179.6Z" fill="#FFF5E3"/>
<g filter="url(#filter0_d_1_329)">
<path d="M75.4334 1286.34C87.6586 1275.13 111.287 1275.32 123.55 1286.34C133.614 1295.39 127.159 1333.54 124.521 1346.93C123.979 1349.67 121.535 1351.6 118.701 1351.6H80.2822C77.4484 1351.6 75.0037 1349.67 74.4627 1346.93C71.8305 1333.56 65.4041 1295.54 75.4334 1286.34Z" fill="url(#paint1_linear_1_329)"/>
<path d="M100.398 1359.6C99.9164 1360.13 99.0672 1360.13 98.5856 1359.6L88.9538 1348.85C88.5117 1348.36 88.558 1347.6 89.0675 1347.18C96.7385 1340.78 101.613 1341.34 109.775 1347.19C110.346 1347.6 110.43 1348.41 109.962 1348.93L100.398 1359.6Z" fill="#FFF5E3"/>
</g>
<defs>
<filter id="filter0_d_1_329" x="30" y="1238" width="139" height="162" filterUnits="userSpaceOnUse" color-interpolation-filters="sRGB">
<feFlood flood-opacity="0" result="BackgroundImageFix"/>
<feColorMatrix in="SourceAlpha" type="matrix" values="0 0 0 0 0 0 0 0 0 0 0 0 0 0 0 0 0 0 127 0" result="hardAlpha"/>
<feOffset/>
<feGaussianBlur stdDeviation="20"/>
<feComposite in2="hardAlpha" operator="out"/>
<feColorMatrix type="matrix" values="0 0 0 0 1 0 0 0 0 0.54 0 0 0 0 0 0 0 0 0.8 0"/>
<feBlend mode="normal" in2="BackgroundImageFix" result="effect1_dropShadow_1_329"/>
<feBlend mode="normal" in="SourceGraphic" in2="effect1_dropShadow_1_329" result="shape"/>
</filter>
<linearGradient id="paint0_linear_1_329" x1="1142.49" y1="1107.29" x2="1142.49" y2="1180" gradientUnits="userSpaceOnUse">
<stop stop-color="#EF4D91"/>
<stop offset="0.857292" stop-color="#FBDB36"/>
<stop offset="1" stop-color="#FFF9DC"/>
</linearGradient>
<linearGradient id="paint1_linear_1_329" x1="99.4918" y1="1287.29" x2="99.4918" y2="1360" gradientUnits="userSpaceOnUse">
<stop stop-color="#EF4D91"/>
<stop offset="0.857292" stop-color="#FBDB36"/>
<stop offset="1" stop-color="#FFF9DC"/>
</linearGradient>
</defs>
</svg>
