<svg xmlns="http://www.w3.org/2000/svg" viewBox="0 0 1448 1448">
  <path fill="#0c0c00" fill-opacity=".9" d="m658 1242-9-8-17-15q-12-11-26-28l-48-69-9-14-24-45-24-50a573 573 0 0 1-39-100c-4-11-8-22-10-34-8-30-13-50-18-78l-2-10c-6-30-9-63-8-92v-98l3-54 2-15 1-3-2-2c-6-1-12-4-15-10-7-12-9-27-8-40 2-17 15-33 28-43l14-9 8-4 14-5c9-1 16 0 24 2-2-12-2-25 5-35l10-10c9-7 20-14 31-17 5-1 10-3 16-2q13 0 25 6l1-1v-1a2 2 32 0 1-1-1c0-12 1-24 5-34 3-10 9-19 17-25q13-10 28-14a2 2-90 0 0 1-1c9-31 35-46 65-44a2 2 0 0 0 2-1c4-12 10-23 19-33 6-5 12-5 19-3a1 1 0 0 1 0 2l-1 2c-8 11-16 22-22 35a1 1 0 0 0 0 1c10 2 18 6 27 12 15 11 23 26 24 45l1 1 2 1c10 4 16 8 23 14l19 20h1l9-20 19-38 26-51 11-21 9-18 21-43c12-25 27-50 42-74l3-5h2l4 2q5 0 8 2l25 11 14 8c3 1 7 3 8 7q1 4-1 8l-14 30-12 24-14 28c-7 15-15 30-21 46l-13 29-26 56-12 24-23 48v3c9 3 12 9 18 17 5 8 7 16 7 25 1 4-1 8-2 11l-2 3 1 1c7 1 15 4 20 9 6 8 10 15 10 25l-1 11c-3 10-5 17-11 28-3 5-13 11-18 13a1 1 0 0 0-1 1l1 3c3 14 4 28 4 42l1 15 1 23v19l-2 39-1 33v50l-2 44q0 17-4 42l-1 10-2 14-1 15-10 53-5 22-12 45-5 16-11 32-17 37-8 15c-9 13-17 26-27 38l-15 20-24 23c-8 9-17 18-26 25l-21 17-12 8c-5 5-9 8-14 10q-4 1 0 3l38 16 23 11 57 29 8 4 36 20 22 15 5 4c4 4 7 5 5 12-1 4-3 7-8 7h-30l-32-3-14-2-45-5-52-4-25-2c-22 1-43-1-64-1l-37-1h-68l-15 1h-25c-4-1-5-4-5-8q-1-10 8-16l18-11 4-2q15-5 29-12l15-8c8-3 16-6 24-11q4-3 9-4l33-14 5-2 27-9 23-9 6-1ZM932 124v2l52-13 2 1h1q2 1 3-1l8-16 1-6a1 1 0 0 0-1-1l-5-2-9-6-18-9c-4-2-7-1-11-1a1 1 0 0 0-1 0c-5 18-13 35-22 52Zm53-2a1 1 0 0 0 0-1h-2l-1 1a1 1 0 0 0 0 1h2a1 1 0 0 0 1 0v-1Zm-34 61 1 1h1l13-25v-1q-27 7-54 11a1 1 0 0 0-1 1l-13 27q-1 1 0 0l25-6 27-8a1 1 54 0 1 1 0Zm-16 41 1-2a2 1 26 0 0-3 0 2 1 26 0 0 1 2h1Zm-14 31 10-22-1-1-51 13-7 1-13 24-1 1v2l21-7 40-9a3 3 6 0 0 2-2Zm-225 21 1 1v-1c1-3 7-2 10-1l-1-3a2 2 0 0 1 1-2l4-1v-3l8-1-1-7v-1l7-1q3 1 0-1-7-5-15-8a1 1-70 0 0-1 0l-7 21a1 1 6 0 1-1 1l-6-1a1 1 2 0 1-1-1c-2-6 0-15 2-22q-19 2-33 15c-1 1-3 2-2 4h1c5-7 10-11 17-13q4-1 1 2l-2 1v2l-4 12q-1 2 0 0v-1c3-5 3-7 10-6l2 2v1l4 1a1 1 7 0 1 0 1v4h1l4 1 1 1v5-1Zm34 61c12-12 19-31 15-48q-3-18-16-30-2-2-1 1l3 9 3 3q5 16 7 32c0 6 1 13-1 18l-1 1-4 3-5 11v1-1Zm-133 35c-7 0-11-5-17-7-7-2-13-3-20-1-12 2-20 6-30 14q-10 6-17 14c-4 4-7 11-6 17l1 16c0 2-2 3-3 4v1l-9-7a3 3 71 0 0-2-1c-6 0-12 0-18 2l-16 8-13 9c-11 7-21 19-26 32-5 15 0 36 10 48a2 2-24 0 0 1 1l5-1a1 1 0 0 1 2 2c0 1 0 2 2 2l8 1 24-3 11-2q6 0 11 2 2 1 1 3c-2 9 4 16 11 20 8 4 17 8 26 8 15 1 33 0 48-4l13-4q16-5 30-13c2-1 3-3 6-3q7 0 15 3a1 1 0 0 1 0 2l-2 4c0 4 1 9 4 12 5 6 14 10 22 12l15 2h12q16 0 25-2l15-3 36-12c8-4 21-11 26-20a2 2 0 0 1 1-1c5 0 18 0 19 6v1l10 2 1-1q2-1 5 1c15 0 25-3 37-6l10-3c5-2 12-6 15-10 5-8 8-16 11-25 2-9 1-18-3-26-3-5-7-14-14-14q-8 0-15-3a1 1 0 0 1 0-1c8-7 7-18 5-27-3-9-8-16-13-23-4-5-10-8-16-10l-5-1-13 4q-8 5-13 13c-1 2-3 3-4 2q-8-1-14-5a1 1-55 0 1-1-1l3-6c2-6 4-13 4-19q0-10-4-20c-9-19-22-37-39-49a1 1 0 0 0-1 1v4c-1 6-3 11-6 17-8 13-21 24-37 28-41 10-89-8-92-57v-5a64 64 0 0 0-34 57c-1 7-1 15 3 20l-1 1Zm242-59-1-1a1 1 0 0 0-2 0l-7 14-8 14q-1 2 1 1c7-3 14-4 23-6l40-7 3-1q6-11 10-23l1-2a1 1 7 0 0 0-1q-27 8-53 12h-7Zm-182 15h-2v1l5 7h1l-3-7a2 2 0 0 0-1-1Zm39 22a1 1 29 0 1 0-1l7-8v-4l-1-1h-2a1 1 0 0 0-1 1v7a2 2 87 0 1-2 2h-8v7h1c10 3 23-2 31-8q2-1 0-1h-4a1 1-9 0 1-1-1h-1c-2 3-4 5-7 5l-7 2h-5Zm-26-6q0 1 0 0c1-2-1-2-2-2v1h1l1 1Zm9 5a1 1 19 0 0-1-1 1 1 19 0 0-2 0 1 1 19 0 0 1 1 1 1 19 0 0 2 0Zm188 23-39 6-1 1a1 1 0 0 0 1 1c12-2 22 1 33 4a1 1-70 0 0 1-1l5-11Zm-252 796-13-26-10-18-16-34-20-46c-5-11-11-22-15-34l-11-32-11-32-11-38-12-59-7-39-4-24-6-42v-6l-4-36-1-12v-10l-2-43 1-69 5-32v-6a1 1-3 0 0-1-1c-7 1-14 3-21 2l-16-1a1 1 0 0 0 0 1v4l2 59v23l1 44 1 15v39q1 22 5 52l4 25 2 11 6 30 13 52c3 12 6 25 11 37l5 15q7 22 16 43l10 20 28 57 18 34 14 23 31 44 7 10h1Zm191-218c-6 31-12 64-21 93q-10 31-17 47l-24 56a312 312 0 0 1-36 58l-14 16c-5 4-11 9-12 12v1l12-8 19-15c12-12 22-24 35-35l13-14c13-17 24-32 37-52 8-12 14-25 20-37l10-22 20-63 10-39c5-22 10-43 13-64l3-24 1-9 6-44v-15l2-39v-28l1-50 2-35v-61c2-12 1-25 2-38l1-4a1 1 2 0 0-1-1c-17 5-35 8-53 6a1 1 0 0 0-1 1q3 18 3 37l1 12 1 40-1 44-1 13c1 15-1 33-2 45l-5 56-6 39-3 28-3 18-6 39-1 7-5 29Zm-76-128-1 17-3 32v5l-3 35-5 55-1 11-4 47-3 25-2 25-6 44-2 16-8 46-7 30v3h1l9-11 9-11 4-7 22-40 6-15 24-55 7-20 15-51 10-53 3-16c3-10 3-20 5-32q2-6 2-13c3-22 8-43 10-65l2-18 6-49 5-51 1-26 1-31 1-18v-82l1-7a1 1-85 0 0-1-1l-15-2a1 1 27 0 0-1 0q-8 8-18 13c-12 6-25 11-39 14l-11 2-16 2v1l5 43 3 20c3 27 3 58 1 92l-4 55-3 41Zm-106 336 1 2v-2l-11-36-14-61-8-40-7-36c-5-31-7-59-10-94l-1-20-4-75v-20l-1-28v-6q0-40-4-81l-1-21 1-59 2-20h-1c-26 1-52-2-75-15l-4-3q-1-1-1 1l-1 36v59l1 19 1 33 1 15 6 55 8 48 5 32 6 37c3 16 8 31 12 47l12 34q9 29 17 49l5 15 33 70 13 27 19 38Zm41 60-1-17-5-52-1-30-2-29-1-18-1-12-3-52-1-5-2-55v-88l-1-11v-28l-1-18v-95l-1-19v-28l3-71 2-22 1-4a1 1-76 0 0-1-1c-8-3-17-8-22-17q-25 12-53 14a1 1 83 0 0-1 2l1 13v42l1 27c0 18 3 38 4 53l2 38 2 72q0 22 4 69v7l6 64c1 18 5 35 8 53l7 37c9 43 18 82 30 120l7 17c5 15 12 30 18 44h1Zm52-423 1-5 3-42 4-49q2-35-1-71l-1-12c-2-15-1-30-1-45-22 1-45 0-66-6l1 31q2 43 2 87l1 16v107l1 24v122l1 20 1 14 2 44 1 11 2 31 1 34 1 12v8l3 42 3 33h1l3-17 7-42 3-24 6-49 1-20 4-30 2-24 4-60 2-21 2-26 3-30 1-33 1-12 1-18Zm150 560-5-4-51-29-27-14-32-17-30-15-37-19-10-5a1 1-58 0 0-1 1l-1 2a2 2 0 0 1-3 0l-1-3q0-2-1-1c-9 5-20 6-30 10-9 4-20 10-27 12-16 4-31 12-46 18l-10 5-11 6-32 15-31 13-10 6q-2 1 0 1l32-2 55-1h32l26 1 60 2 22 2 40 3 14 2 27 3 12 1 28 4c16 2 32 4 48 3Z"/>
  <path fill="#0c0c00" fill-opacity=".9" d="m758 374 3 1a1 1 0 0 1 0 1l-10 28-2 1-10-3a1 1 0 0 1-1-1l10-35 1-1h2l4-2 2 2c0 2 1 2 2 3v1l-1 5Zm-152 18q2 1 1 2l-17 36a1 1-73 0 1-2 1q-5-1-9-4l-1-1c3-6 5-13 9-18l10-18a1 1 19 0 1 1-1l8 3Zm51 6c3 0 10 1 12 4l1 15 1 24a2 2 0 0 1-2 1l-9-1a1 1 13 0 1 0-2l-2-20-2-20a1 1 0 0 1 1-1Z"/>
</svg>