<svg xmlns="http://www.w3.org/2000/svg" xml:space="preserve" id="Layer_1" x="0" y="0" fill="#0c0c00" version="1.1" viewBox="0 0 1448 1448">
  <path d="M284 942a468 468 0 0 1-96-470c46-104 118-209 231-243 56-21 119-19 176-7 39 8 75 32 109 52 10 3 49 43 52 35 64-80 181-137 286-116 133 27 209 167 216 294 6 68 0 143-15 210-10 54-23 124-50 172-19 38-41 76-70 108-11 13-24 24-37 34-2 1 4 20 4 22 5 33 4 69-16 97-23 42-74 14-106-2-14-12-18-3-30 6a396 396 0 0 1-419 50c-46-23-92-57-125-97-39 31-85 75-134 34-62-47-19-136 24-179zm794-294c-11 87-37 179-99 242 41 30 81 64 102 111 112-106 153-278 160-430 14-132-32-285-153-354-96-48-182-9-265 48-19 16-42 37-58 56 12 14 27 24 37 42 29 28 47 71 64 105 43-18 96-24 141-7 73 28 74 121 71 187zm-896 9c4 101 46 200 105 281 32-37 78-68 123-90-22-37-34-88-42-130-12-45-15-95-9-141 2-58 46-107 103-117 99-13 180 70 216 155 21 69 59 122 120 161 1-1 13 11 13 7l19-42c61-124 39-288-54-389a358 358 0 0 0-181-121c-75-16-157-4-222 34a436 436 0 0 0-191 392zm706-52c-1 60-21 120-52 172-2 6-9 9-13 14 12 8 36 23 48 29 32 17 69 43 99 64 73-95 140-304 51-405-41-35-106-22-148 4l-3 1 10 38 8 83zm-326-66 19-24c-29-24-70-38-110-38-45 3-101 34-100 86-5 40-4 87 8 125 3 34 17 73 27 105 4 17 12 39 22 48 22-8 48-19 72-20 20 5 2-7 1-28-13-88 16-179 61-254zm-41 151c-14 62-4 138 53 176 70 50 151 87 225 131 37 23 78 47 113 73 26 16 143 104 156 55 20-45 12-101-15-142-90-125-265-150-348-279-31-56-51-119-97-166-23-22-21-25-38 4-26 45-45 96-49 148zm-277 393c24 78 83 31 124-3 33-22 76-49 110-69 52-34 117-59 176-72-49-29-111-57-139-109-116 17-277 124-271 253zm320-94c0 1-11 4-10 5 72 44 164 54 244 25l-118-66c-4-3-8-1-13 0-34 11-70 20-103 36zm-11 193c105 42 215 29 314-22 25-12 50-33 73-49-16-13-50-32-67-45-12-10-48-30-62-38-10 0-28 12-41 15-75 19-172 10-229-44-46 25-96 53-138 84 44 42 96 74 150 99z" class="st0"/>
  <path d="M434 292c-12 21-21 44-32 64-15 4-6-9-3-15 6-7 23-64 35-49zm505 86c-8 6-6-3-7-8 2-23-5-50 3-72 12-13 8 76 4 80zm-374 15c3-13-15-85-4-83 6 9 9 48 11 60 0 5 7 34-7 23zm477-44c-1 0-6-2-3-3 19-1 39 24 51 36-8 16-39-18-46-26-5-4-4-2-2-7zM306 494c-4 1-10-60-12-62-1-7 1-8 6-9 6 0 12 64 14 68 0 3-6 2-8 3zm436 8c-4 10-2 21-7 28-1 0-11 1-9-2 4-13 8-61 13-72 16-4 3 38 3 46zm440 66c8-3-4 13-4 15-5 13-14 38-31 34-1-2 2-3 1-5-6 0 25-39 24-46 2-4 8-2 12-3 1 2-3 4-2 5zM278 685c-12-5-40-39-46-51 6-12 36 31 42 34 2 5 18 17 4 17zm525-5c-3 22-35-37-39-39 12-12 40 32 39 39zm-197 75c-2-3 0-3 3-4l2 2c0 2 2 1 3 1 4 2 14 29 16 33-1 1 14 30 10 29-5 7 2 4-10 8-4-4-14-33-16-39-3-9-9-18-13-26 1-1 6-3 5-4zm528 68c1 3-3 4-5 5-4 3-7-15-8-16 0-6-13-40-8-44 6-19 25 49 21 55zm-819 20c-1 2 0 10-3 11-5 0-8 1-7-5 1-13 0-42 4-53 1 0 9-1 8 1l-2 46zm130 59c8-3 6 4 7 9-2 13-1 52-10 62-23 16 6-62 2-65l1-6zm430 24-2 2c-13-1-77 1-71-17 20 0 52 7 72 9l1 6zm119 117c-7 8-11-37-13-38 11-19 13-7 16 7 0 2 13 37 10 36-1 2-8 7-8 3l-1-2c-2-1-1-6-4-6zm-477 54c-27 1 71-29 73-24 2 8-20 11-24 14-6 0-46 17-49 10zm277 5c3-20 49 16 58 22-7 15-23-6-32-9l-26-13zm-75 57c-8 16-42-43-48-45-5-3 2-8 5-8 13 17 38 33 43 53z" class="st0"/>
</svg>