<svg width="1829" height="266" viewBox="0 0 1829 266" fill="none" xmlns="http://www.w3.org/2000/svg">
<line x1="34.5215" y1="19.7976" x2="12.2405" y2="65.6635" stroke="#CCAA4B"/>
<line x1="0.218477" y1="30.9209" x2="46.0848" y2="53.202" stroke="#CCAA4B"/>
<line y1="-0.5" x2="50.9918" y2="-0.5" transform="matrix(0.945006 -0.327053 0.327061 0.945003 0.331268 50.6113)" stroke="#CCAA4B"/>
<line y1="-0.5" x2="50.9918" y2="-0.5" transform="matrix(0.327061 0.945003 -0.945006 0.327053 14.3546 18)" stroke="#CCAA4B"/>
<circle cx="64" cy="235" r="5" fill="#265BF6"/>
<circle cx="259" cy="10" r="9.5" stroke="#FB7500"/>
<line x1="1613.52" y1="218.798" x2="1591.24" y2="264.663" stroke="#CCAA4B"/>
<line x1="1579.22" y1="229.921" x2="1625.08" y2="252.202" stroke="#CCAA4B"/>
<line y1="-0.5" x2="50.9918" y2="-0.5" transform="matrix(0.945006 -0.327053 0.327061 0.945003 1579.33 249.611)" stroke="#CCAA4B"/>
<line y1="-0.5" x2="50.9918" y2="-0.5" transform="matrix(0.327061 0.945003 -0.945006 0.327053 1593.35 217)" stroke="#CCAA4B"/>
<circle cx="1824" cy="165" r="5" fill="#265BF6"/>
<circle cx="1619" cy="20" r="9.5" stroke="#FB7500"/>
</svg>
