<svg xmlns="http://www.w3.org/2000/svg" data-name="Layer 1" viewBox="0 0 898 399">
    <path fill="#fff" d="M382 255H19a19 19 0 0 1-19-19V14A14 14 0 0 1 14 0h373a14 14 0 0 1 14 14v222a19 19 0 0 1-19 19Z"/>
    <path fill="#e6e6e6" d="M382 255H19a19 19 0 0 1-19-19V14A14 14 0 0 1 14 0h373a14 14 0 0 1 14 14v222a19 19 0 0 1-19 19ZM14 4A10 10 0 0 0 4 14v222a15 15 0 0 0 15 15h363a15 15 0 0 0 15-15V14a10 10 0 0 0-10-10Z"/>
    <path fill="#e6e6e6" d="M166 198H57a11 11 0 0 1-11-9 10 10 0 0 1 0-2V67a11 11 0 0 1 11-11h109a11 11 0 0 1 11 11v120a11 11 0 0 1-11 11ZM57 62a5 5 0 0 0-5 5v120a4 4 0 0 0 0 1 5 5 0 0 0 5 4h109a5 5 0 0 0 5-5V67a5 5 0 0 0-5-5Zm290 97H215a8 8 0 1 1 0-16h132a8 8 0 0 1 0 16Zm-60-34h-72a8 8 0 1 1 0-16h72a8 8 0 0 1 0 16Z"/>
    <path fill="#2f2e41" d="M148 124c0 18-17 15-37 15s-36 3-36-15 8-49 36-49c30 0 37 31 37 49Z"/>
    <path fill="#3f3d56" d="M149 154a9 9 0 0 0-4-5 8 8 0 0 0-1-1 9 9 0 0 0-12 12l15 33h19Zm-63 2a9 9 0 0 0-13 5l-13 32a8 8 0 0 0 2 0h17l11-26a9 9 0 0 0-4-11Z"/>
    <circle cx="110.9" cy="114.5" r="24.6" fill="#ffb8b8"/>
    <path fill="#3f3d56" d="M145 149a16 16 0 0 0-13-4l-45 6a16 16 0 0 0-14 17l3 25h72l2-31a16 16 0 0 0-5-13Z"/>
    <path fill="#2f2e41" d="M83 112h9l5-12v12h5l3-7v7h35a26 26 0 0 0-26-26h-5a26 26 0 0 0-26 26Z"/>
    <path fill="#fff" d="M497 236V14a14 14 0 0 1 15-14h372a14 14 0 0 1 14 14v222a19 19 0 0 1-18 19H516a19 19 0 0 1-19-19Z"/>
    <path fill="#e6e6e6" d="M497 236V14a14 14 0 0 1 15-14h372a14 14 0 0 1 14 14v222a19 19 0 0 1-18 19H516a19 19 0 0 1-19-19ZM512 4a10 10 0 0 0-11 10v222a15 15 0 0 0 15 15h364a15 15 0 0 0 14-15V14a10 10 0 0 0-10-10Z"/>
    <path fill="#e6e6e6" d="M721 187V67a11 11 0 0 1 11-11h109a11 11 0 0 1 11 11v120a10 10 0 0 1 0 2 11 11 0 0 1-11 9H732a11 11 0 0 1-11-11Zm11-125a5 5 0 0 0-5 5v120a5 5 0 0 0 5 5h109a5 5 0 0 0 5-4 4 4 0 0 0 0-1V67a5 5 0 0 0-5-5Zm-189 89a8 8 0 0 1 8-8h132a8 8 0 1 1 0 16H551a8 8 0 0 1-8-8Zm0-34a8 8 0 0 1 8-8h72a8 8 0 1 1 0 16h-72a8 8 0 0 1-8-8Z"/>
    <path fill="#2f2e41" d="M760 103c7 14 12 28 28 28a28 28 0 0 0 0-56c-16 0-41 2-28 28Z"/>
    <circle cx="786.2" cy="107" r="24.6" fill="#a0616a"/>
    <path fill="#3f3d56" d="M820 152a43 43 0 0 0-5-5 42 42 0 0 0-29-9h-1a42 42 0 0 0-30 17 42 42 0 0 0-8 34l1 4h81l1-6a42 42 0 0 0-10-35Z"/>
    <path fill="#3f3d56" d="M832 158a14 14 0 0 0-14-12v1a14 14 0 0 0-3 0 14 14 0 0 0-11 17l8 29h26Zm-57-7a14 14 0 0 0-4-5 14 14 0 0 0-4-2 13 13 0 0 0-2-1 14 14 0 0 0-16 10l-14 40h27l13-30a14 14 0 0 0 0-12Z"/>
    <path fill="#2f2e41" d="M760 93a33 33 0 0 0 19 6 20 20 0 0 1-8 3 67 67 0 0 0 28 0 18 18 0 0 0 5-2 7 7 0 0 0 4-4c1-4-2-7-5-9a36 36 0 0 0-30-6c-4 1-7 2-9 5s-3 7-1 10Z"/>
    <path fill="#fff" d="M631 399H267a19 19 0 0 1-18-19V158a14 14 0 0 1 14-14h372a14 14 0 0 1 14 14v222a19 19 0 0 1-18 19Z"/>
    <path fill="#3f3d56" d="M631 399H267a19 19 0 0 1-18-19V158a14 14 0 0 1 14-14h372a14 14 0 0 1 14 14v222a19 19 0 0 1-18 19ZM263 148a10 10 0 0 0-10 10v222a15 15 0 0 0 14 15h364a15 15 0 0 0 14-15V158a10 10 0 0 0-10-10Z"/>
    <path fill="#e6e6e6" d="M415 342H306a11 11 0 0 1-11-9 10 10 0 0 1 0-2V211a11 11 0 0 1 11-11h109a11 11 0 0 1 11 11v120a11 11 0 0 1-11 11ZM306 206a5 5 0 0 0-5 5v120a4 4 0 0 0 0 1 5 5 0 0 0 5 4h109a5 5 0 0 0 5-5V211a5 5 0 0 0-5-5Z"/>
    <path fill="#2f2e41" d="M359 222c-7-3-16-4-23-1s-13 11-10 18c1 3 3 6 2 9 0 3-3 4-5 5l-7 5c-1 2-3 5 0 6l2 2a4 4 0 0 1 1 4 9 9 0 0 1-3 4c-2 2-6 4-5 7a5 5 0 0 0 4 4 18 18 0 0 0 5 1l75 2a28 28 0 0 0 8-1 9 9 0 0 0 6-3c1-3 0-6-2-9l-6-7c-2-3-4-5-3-8l3-6c2-2 1-5 0-7-2-3-7-2-9-5-2-2-2-5-2-7 0-6-5-12-11-15a21 21 0 0 0-19 2Z"/>
    <circle cx="361.4" cy="262.8" r="24.6" fill="#a0616a"/>
    <path fill="#3f3d56" d="M394 319a24 24 0 0 0-13-21h-1a24 24 0 0 0-9-3l-23-1a24 24 0 0 0-10 2 23 23 0 0 0-2 1 24 24 0 0 0-6 4 24 24 0 0 0-7 18v10l3 7h65a18 18 0 0 0 3-3 16 16 0 0 0 0-14Z"/>
    <path fill="#3f3d56" d="M392 306a14 14 0 0 0-5-6 14 14 0 0 0-5-2 15 15 0 0 0-2 0 14 14 0 0 0-4 0 14 14 0 0 0-9 21l9 17h30Zm-49-9a14 14 0 0 0-5-1 14 14 0 0 0-3 0 14 14 0 0 0-13 11l-6 29h24l4-1 6-22a14 14 0 0 0-7-16Z"/>
    <path fill="#2f2e41" d="M336 259c8 0 14-8 14-16a13 13 0 0 0 11 13c3 1 7 0 10 2 4 1 5 6 8 8 4 2 8-1 10-4s1-8 0-11a32 32 0 0 0-53-13c-3 3-5 7-6 12s2 9 6 12Z"/>
    <path fill="#e6e6e6" d="M595 303H463a8 8 0 1 1 0-16h132a8 8 0 0 1 0 16Z"/>
    <path fill="#427ee6" d="M535 269h-72a8 8 0 1 1 0-16h72a8 8 0 0 1 0 16Zm39 59a26 26 0 0 0 0 53 26 26 0 0 0 0-53Z"/>
    <path fill="#fff" d="M572 365a3 3 0 0 1-2 0v-1l-8-5a3 3 0 0 1 4-5l5 3 11-14a3 3 0 0 1 5-1h-1 1a3 3 0 0 1 0 5l-13 17a3 3 0 0 1-2 1Z"/>
</svg>