<svg xmlns="http://www.w3.org/2000/svg" data-name="Layer 1" viewBox="0 0 704 745">
    <path fill="#f2f2f2" d="M196 731c-28 0-72-22-112-59a175 175 0 0 1-13-13 2 2 0 0 1 0-3 2 2 0 0 1 2-1l17-3a1 1 0 0 0 1-3l-30-5a3 3 0 0 1-2-1c-32-44-49-99-53-115a2 2 0 0 1 2-3l28 7a3 3 0 0 1 2 2l1 4a2 2 0 0 0 3-1 3 3 0 0 1 3-2 432 432 0 0 1 43 15 3 3 0 0 1 1 2l5 20a2 2 0 0 0 3-1l1-13a3 3 0 0 1 4-2c22 11 41 23 56 37 54 50 81 108 61 130-6 6-13 8-23 8Z"/>
    <path fill="#f2f2f2" d="M203 731c-28 0-64-48-83-114a175 175 0 0 1-4-18 2 2 0 0 1 1-2 2 2 0 0 1 2-1l17 7a2 2 0 0 0 1-2l-23-20a3 3 0 0 1 0-2c-5-54 9-110 13-126a2 2 0 0 1 4-1l21 20a3 3 0 0 1 0 3l-1 4a2 2 0 0 0 3 1 3 3 0 0 1 4-1 432 432 0 0 1 28 35 3 3 0 0 1 1 2l-6 20a1 1 0 0 0 2 1l8-10a2 2 0 0 1 2-1 2 2 0 0 1 2 1c14 21 24 41 29 60 20 71 14 135-15 143a23 23 0 0 1-6 1Z"/>
    <ellipse cx="352" cy="727.2" fill="#e6e6e6" rx="352" ry="18"/>
    <path fill="#3f3d56" d="M558 173h-4V63a63 63 0 0 0-64-63H258a63 63 0 0 0-63 63v601a63 63 0 0 0 63 64h232a63 63 0 0 0 64-64V251h4Z"/>
    <path fill="#fff" d="M540 64v600a47 47 0 0 1-47 47H260a47 47 0 0 1-48-47V64a47 47 0 0 1 48-48h28a23 23 0 0 0 21 31h133a23 23 0 0 0 21-31h30a47 47 0 0 1 47 48Z"/>
    <path fill="#e6e6e6" d="M505 133H247a17 17 0 0 0-16 16v300a17 17 0 0 0 16 17h258a16 16 0 0 0 14-8 13 13 0 0 0 1-2 16 16 0 0 0 2-5 13 13 0 0 0 0-2V149a17 17 0 0 0-17-16Z"/>
    <circle cx="376.2" cy="590.2" r="57" fill="#427ee6"/>
    <circle cx="378.3" cy="189.3" r="62" fill="#2f2e41"/>
    <path fill="#ffb8b8" d="M522 413v38a16 16 0 0 1-2 5 13 13 0 0 1-1 2l-10-10-56-52-50-46 35-26 40 42Z"/>
    <circle cx="624.7" cy="289.2" r="46.1" fill="#ffb8b8" transform="rotate(-45 407 550)"/>
    <path fill="#427ee6" d="M408 466H283c6-20 9-51 9-93a1045 1045 0 0 0-4-102 18 18 0 0 1 18-20 56 56 0 0 1 25 6 160 160 0 0 0 36 12 151 151 0 0 1 64 30l2 1a142 142 0 0 1 45 66l-22 30a3 3 0 0 1-3 1l-23-7c-16 34-3 53 0 57l1 1h-1a86 86 0 0 1-22 18Z"/>
    <path fill="#2f2e41" d="M522 450v1a16 16 0 0 1-2 5 13 13 0 0 1-1 2 16 16 0 0 1-14 8H331l93-18 6-1a438 438 0 0 1 92 3Zm-99-268a137 137 0 0 1-60 20l7-8-15 3c-5 0-10-2-12-6-3-4-3-9-1-13l8-11a51 51 0 0 1 48-8c6 1 11 4 14 9s6 10 4 16Z"/>
    <path fill="#2f2e41" d="M372 134a142 142 0 0 1 52-33c12-5 26-8 39-5s25 12 29 24c3 11 0 22-5 32l-14 29a67 67 0 0 0 67 90c-13 1-25 7-37 11s-28 2-37-6c-10-10-10-25-9-39l2-61c0-10 0-21-3-31s-13-18-23-18c-8 0-15 5-21 10s-13 9-21 10-17-5-16-13Z"/>
    <path fill="#ffb8b8" d="m307 337-5 40-11 89h-33l4-107 2-31 28 6 15 3z"/>
    <path fill="#427ee6" d="m341 397-90-46a4 4 0 0 1-3-6l32-84c1-4 5-7 11-9 7-3 16-4 21-1h1l-3 7Z"/>
</svg>