<svg xmlns="http://www.w3.org/2000/svg" data-name="Layer 1" viewBox="0 0 909 529">
    <circle cx="248.2" cy="402.1" r="44.7" fill="#f9a826"/>
    <path d="M361 558a45 45 0 0 0 74 47 45 45 0 1 1-74-47Z" opacity=".2" style="isolation:isolate"
          transform="translate(-145 -185)"/>
    <path fill="#3f3d56" d="m248 402 3 127h-5l2-127z"/>
    <circle cx="157.8" cy="273.4" r="90.1" fill="#f9a826"/>
    <path d="M237 399a90 90 0 0 0 150 95 90 90 0 1 1-150-95Z" opacity=".2" style="isolation:isolate"
          transform="translate(-145 -185)"/>
    <path fill="#3f3d56" d="m158 273 5 256h-10l5-256z"/>
    <path fill="#f0f0f0" d="M339 397h413v122H339z"/>
    <path fill="#cacaca" d="M521 422h48v97h-48z"/>
    <path fill="#f0f0f0" d="M363 252h365v113H363z"/>
    <path fill="#cacaca"
          d="M765 259H326a4 4 0 0 1-3-6l120-115V87a4 4 0 0 1 4-3h24a4 4 0 0 1 3 3v21l9-9a81 81 0 0 1 111-2l173 156a4 4 0 0 1-2 6Z"/>
    <path fill="#fff"
          d="M459 281a23 23 0 0 1 23 23v31h-46v-31a23 23 0 0 1 23-23Zm86 0a23 23 0 0 1 24 23v32h-47v-32a23 23 0 0 1 23-23Zm86 1a23 23 0 0 1 24 23v31h-47v-31a23 23 0 0 1 23-23Zm35 139a23 23 0 0 1 23 23v31h-47v-31a23 23 0 0 1 24-23Zm-230 0a23 23 0 0 1 23 23v31h-47v-31a23 23 0 0 1 24-23Z"/>
    <path fill="#cacaca"
          d="m812 399-77-35a3 3 0 0 0-2 0H364a3 3 0 0 0-1 0l-84 34a3 3 0 0 0 1 7h22v112h-3v12h492v-12h-4V405h24a3 3 0 0 0 1-6Zm-31 118H308V405h473ZM429 331h60v10h-60zm87 0h60v10h-60zm87 0h60v10h-60z"/>
    <path fill="#cacaca" d="M636 472h60v10h-60zm-231 0h60v10h-60z"/>
    <path fill="#3f3d56"
          d="M908 529H1a1 1 0 0 1 0-2h907a1 1 0 0 1 0 2Zm-240-84v-4c-1-1-4 3-5 4a10 10 0 0 0-3-1c0-6-1-3-3 0-10 4-6 19 4 19 10 1 14-12 7-18Z"/>
    <path fill="#3f3d56" d="M669 459c4 0 9 13 0 13l-13 1s-6-9-3-15Z"/>
    <path fill="#3f3d56" d="M661 466v7h3l3-7"/>
    <path fill="#fff" d="M664 473h-3v-7 7h3l3-7-3 7Z"/>
    <path fill="#3f3d56" d="M672 473h-5 5Z"/>
    <path fill="#fff" d="M668 472s-1-5 2-6c-3 2-2 6-2 6Z"/>
    <path fill="#3f3d56" d="M672 471Zm14-4c-2-3-5-2-7 1-1 3-9 1-8 5 5-1 18 2 15-6Z"/>
    <path fill="#fff"
          d="M661 462c-3 1-8-3-9-4h1a9 9 0 0 0 4 3c2 1 6 1 12-2a16 16 0 0 1-8 3Zm0-6-1-1a1 1 0 0 0 1 0h1l-1 1Zm-1 17-2-7 2 6v1Z"/>
    <path fill="#3f3d56" d="M665 473c0 2-5 2-5 0h5Zm-4 0h-5 5Z"/>
    <path fill="#fff"
          d="M662 453h-2 2Zm-8 0a3 3 0 0 1 5 0c3-3-1-8-5-5a3 3 0 0 0 0 5Zm10 0a3 3 0 0 1 4 0c3-3-1-8-4-5a3 3 0 0 0 0 5Z"/>
    <path fill="#3f3d56" d="M655 450a1 1 0 0 1 0 2 1 1 0 0 1 0-2Zm9 0a1 1 0 0 1 0 2 1 1 0 0 1 0-2Z"/>
    <path fill="#ff6584" d="M666 454a1 1 0 0 1 0 2 1 1 0 0 1 0-2Zm-9 0a1 1 0 0 1 0 2 1 1 0 0 1 0-2Z"/>
    <path fill="#cbcbcb"
          d="M365 58a1 1 0 0 1-1-1 36 36 0 0 0-36-33h-4a43 43 0 0 0-79 9 1 1 0 0 1-1 1 30 30 0 0 0-30 23 1 1 0 0 1-1 1h-68a1 1 0 1 1 0-2h67a32 32 0 0 1 32-24 45 45 0 0 1 81-10h3a38 38 0 0 1 38 35 1 1 0 0 1-1 1Zm-12 13H186a1 1 0 0 1 0-2h167a1 1 0 1 1 0 2ZM226 86h-56a1 1 0 1 1 0-2h56a1 1 0 1 1 0 2Zm674 48a1 1 0 0 1-1-1 36 36 0 0 0-36-33h-4a43 43 0 0 0-79 9 1 1 0 0 1-1 1 30 30 0 0 0-30 23 1 1 0 0 1-1 1h-68a1 1 0 1 1 0-2h67a32 32 0 0 1 32-24 45 45 0 0 1 81-10h3a38 38 0 0 1 38 35 1 1 0 0 1-1 1Zm-12 13H721a1 1 0 0 1 0-2h167a1 1 0 1 1 0 2Zm-127 15h-56a1 1 0 1 1 0-2h56a1 1 0 0 1 0 2Z"/>
    <path fill="#f9a826" d="M179 511c13 4 14-14 16-22-8 5-20 12-15 22"/>
    <path fill="#3f3d56" d="M180 526c-1-10-2-22 8-28v1c-9 5-9 17-7 26l-1 1Z"/>
    <path fill="#f9a826" d="M184 519c6 8 15-3 19-7-6 0-16-2-18 7"/>
    <path fill="#3f3d56" d="M179 528c3-6 8-14 16-13v1c-7-1-13 6-16 12 0 1-1 0 0 0Z"/>
    <path fill="#f9a826" d="M835 511c-13 4-13-14-15-22 7 5 20 12 15 22"/>
    <path fill="#3f3d56" d="M835 526c1-10 1-22-8-28v1c9 5 8 17 7 26l1 1Z"/>
    <path fill="#f9a826" d="M830 519c-6 8-14-3-19-7 7 0 17-2 19 7"/>
    <path fill="#3f3d56" d="M836 528c-3-6-8-14-17-13l1 1c7-1 12 6 15 12h1Z"/>
    <path fill="#f9a826" d="M890 499c-23 6-23-26-27-40 13 9 34 21 26 39"/>
    <path fill="#3f3d56" d="M888 523c3-16 3-38-13-47-1-1-1 0-1 1 16 9 16 30 13 46a1 1 0 0 0 1 0Z"/>
    <path fill="#f9a826" d="M881 511c-10 14-25-4-33-11 11-1 29-3 33 11"/>
    <path fill="#3f3d56" d="M891 528c-6-12-15-24-29-23v2c14-2 22 10 28 21h1Z"/>
    <path fill="#ffb6b6" d="M80 525h4l2-15h-6v15z"/>
    <path fill="#2f2e41" d="M79 524h7a5 5 0 0 1 5 5H79Z"/>
    <path fill="#ffb6b6" d="M98 525h4l1-15h-5v15z"/>
    <path fill="#2f2e41" d="M97 524h7a5 5 0 0 1 5 5H97Z"/>
    <path fill="#ffb6b6" d="M105 458a3 3 0 0 0-1-5l-6-30-7 3 8 28a3 3 0 0 0 6 4Z"/>
    <path fill="#2f2e41" d="m76 452-3 3s-3 11 3 25l4 39 7 1 2-46 9 15-2 31 8-1 4-33-10-36Z"/>
    <path fill="#f9a826" d="M86 456a107 107 0 0 1-13-1l4-18-1-24h13a5 5 0 0 1 5 4l3 19 3 17c-2 3-8 3-14 3Z"/>
    <path fill="#f9a826" d="m88 417 3-4s5-3 6 4l4 19-9 1Z"/>
    <path fill="#ffb6b6" d="M62 458a3 3 0 0 1 1-5l6-29 6 2-8 29a3 3 0 0 1-5 3Z"/>
    <path fill="#f9a826" d="m79 417-3-3s-5-4-6 3l-5 19 10 1Z"/>
    <path fill="#2f2e41" d="M90 409H72a1 1 0 0 1-1-1v-8a10 10 0 0 1 21 0v8a1 1 0 0 1-2 1Z"/>
    <circle cx="83.5" cy="401.4" r="7.6" fill="#ffb6b6"/>
    <path fill="#2f2e41" d="M94 401H83v-1 1h-2v-3l-1 3h-4a8 8 0 0 1 9-8h1a8 8 0 0 1 8 8Z"/>
    <path fill="#2f2e41" d="m83 411-8-1v-14h9c-3 4-1 10 0 13a1 1 0 0 1 0 1 1 1 0 0 1-1 1Z"/>
</svg>