<svg xmlns="http://www.w3.org/2000/svg" data-name="Layer 1" viewBox="0 0 698 632">
    <path fill="#fff" d="M305 522H14a14 14 0 0 1-14-14V113a14 14 0 0 1 14-14h291a14 14 0 0 1 14 14v395a14 14 0 0 1-14 14Z"/>
    <path fill="#fff" d="M146 202a54 54 0 0 1-37 52h-1l-4 1a53 53 0 0 1-8 1h-4a54 54 0 0 1-18-3 54 54 0 1 1 72-51Z"/>
    <circle cx="90.9" cy="211.7" r="26.3" fill="#427ee6"/>
    <path fill="#2f2e41" d="M92 226v-1l-4-1a3 3 0 0 1-1-2 2 2 0 0 1 0-2 3 3 0 0 1 3 0h1l-1-11h-1l1 10a3 3 0 0 0-3 0 3 3 0 0 0-1 3 4 4 0 0 0 1 3l5 1Zm-14-16h5v1h-5zm17 0h5v1h-5zm3 38a5 5 0 0 0 1-1 5 5 0 0 0-5-4h-7a5 5 0 0 0-5 4 5 5 0 0 0 0 1 26 26 0 0 0-7 4l-1 1a54 54 0 0 0 18 3h4a53 53 0 0 0 8-1l4-1a27 27 0 0 0-10-6Z"/>
    <path fill="#2f2e41" d="M98 255a4 4 0 0 0-2 1 53 53 0 0 0 8-1Zm17-50-46-16a2 2 0 0 1-1-3v-1c4-9 15-15 25-12l14 5c10 4 14 15 11 25l-1 1a2 2 0 0 1-2 1Z"/>
    <path fill="#2f2e41" d="M117 206c-63 3-69-5-50-18l5-7 47 17Z"/>
    <ellipse cx="351.8" cy="310.1" fill="#2f2e41" rx="2.2" ry="4.2" transform="rotate(-73 136 412)"/>
    <path fill="#ccc" d="M92 258a55 55 0 0 1-18-3l-1-1a56 56 0 1 1 36 1 60 60 0 0 1-5 1 55 55 0 0 1-8 2h-4Zm0-108a53 53 0 0 0-18 102h1a52 52 0 0 0 17 3h4a52 52 0 0 0 7-1l5-2h1a53 53 0 0 0-17-102Z"/>
    <path fill="#ccc" d="M305 522H14a14 14 0 0 1-14-14V113a14 14 0 0 1 14-14h291a14 14 0 0 1 14 14v395a14 14 0 0 1-14 14ZM14 101a12 12 0 0 0-12 12v395a12 12 0 0 0 12 13h291a12 12 0 0 0 12-13V113a12 12 0 0 0-12-12Z"/>
    <path fill="#e6e6e6" d="M249 202h-83a7 7 0 0 1 0-13h83a7 7 0 1 1 0 13Zm27 22H166a7 7 0 0 1 0-13h110a7 7 0 0 1 0 13Zm-27 84H43a7 7 0 1 1 0-13h206a7 7 0 0 1 0 13Zm26 22H43a7 7 0 1 1 0-13h232a7 7 0 1 1 0 13Zm-26 51H43a7 7 0 1 1 0-13h206a7 7 0 0 1 0 13Zm26 22H43a7 7 0 1 1 0-13h232a7 7 0 1 1 0 13Zm-26 50H43a7 7 0 1 1 0-13h206a7 7 0 0 1 0 13Zm26 22H43a7 7 0 1 1 0-13h232a7 7 0 1 1 0 13Z"/>
    <path fill="#fff" d="M684 423H393a14 14 0 0 1-14-14V14a14 14 0 0 1 14-14h291a14 14 0 0 1 14 14v395a14 14 0 0 1-14 14Z"/>
    <path fill="#ccc" d="M684 423H393a14 14 0 0 1-14-14V14a14 14 0 0 1 14-14h291a14 14 0 0 1 14 14v395a14 14 0 0 1-14 14ZM393 2a12 12 0 0 0-12 12v395a12 12 0 0 0 12 12h291a12 12 0 0 0 12-12V14a12 12 0 0 0-12-12Z"/>
    <path fill="#fff" d="M526 102a54 54 0 1 1-55-54 54 54 0 0 1 55 54Z"/>
    <path fill="#427ee6" d="M496 112c0 34-52 34-52 0 0-35 52-35 52 0Z"/>
    <path fill="#2f2e41" d="M469 122v-1c7 1 8-7 1-4l2-11h1l-1 9c7-1 4 8-3 7Zm9-15h5v1h-5zm-17 0h5v1h-5zm18 41c1-7-7-5-12-5a5 5 0 0 0-4 5 26 26 0 0 0-9 5 54 54 0 0 0 34 1 25 25 0 0 0-9-6Zm-21-49c5-3 11 0 16 1 9 3 23-1 24-12s-14-17-18-6l1-1c-15-22-41-21-41 10h2c-1-18 11-31 28-19a50 50 0 0 1 10 10c2 2 2-6 10-4 10 3 7 17-2 20-10 5-21-5-31 0a1 1 0 0 0 1 1Z"/>
    <path fill="#ccc" d="M471 158a56 56 0 1 1 18-3 55 55 0 0 1-18 3Zm0-108a53 53 0 1 0 53 52 53 53 0 0 0-53-52Z"/>
    <path fill="#e6e6e6" d="M628 103h-83a7 7 0 0 1 0-13h83a7 7 0 1 1 0 13Zm27 22H545a7 7 0 1 1 0-13h110a7 7 0 0 1 0 13Zm-27 84H422a7 7 0 0 1 0-13h206a7 7 0 1 1 0 13Zm27 22H422a7 7 0 1 1 0-13h233a7 7 0 0 1 0 13Zm-27 51H422a7 7 0 0 1 0-13h206a7 7 0 0 1 0 13Zm27 22H422a7 7 0 1 1 0-13h233a7 7 0 0 1 0 13Zm-27 50H422a7 7 0 1 1 0-13h206a7 7 0 1 1 0 13Zm27 22H422a7 7 0 1 1 0-13h233a7 7 0 0 1 0 13Z"/>
    <path fill="#fff" d="M508 593H217a14 14 0 0 1-14-14V184a14 14 0 0 1 14-14h291a14 14 0 0 1 14 14v395a14 14 0 0 1-14 14Z"/>
    <path fill="#fff" d="M241 272a54 54 0 0 0 16 38l2 1a54 54 0 0 0 8 7l2 1a54 54 0 0 0 10 4l2 1a54 54 0 0 0 32-1h1a54 54 0 1 0-73-51Z"/>
    <path fill="#2f2e41" d="M284 298a17 17 0 0 1-4 12c-3 3-7 5-11 4s-7-4-7-8a6 6 0 0 1 8-6c3 1 5 6 2 9-1 1-2-1-1-1a4 4 0 0 0-1-6 5 5 0 0 0-6 4c-1 3 2 6 5 6 4 1 7-1 10-3a15 15 0 0 0 4-11 1 1 0 0 1 1 0Z"/>
    <circle cx="298.6" cy="281.4" r="26.3" fill="#427ee6"/>
    <path fill="#2f2e41" d="M297 293v-1l5-1a3 3 0 0 0 1-3 2 2 0 0 0-1-1 3 3 0 0 0-3 0l1-11h1l-1 10a3 3 0 0 1 3 0 3 3 0 0 1 1 2 4 4 0 0 1-2 3l-5 2Zm9-16h5v1h-5zm-17 0h5v1h-5zm-8 47a54 54 0 0 0 32-1h1a26 26 0 0 0-8-5 4 4 0 0 0 0-2 5 5 0 0 0-5-3h-6a5 5 0 0 0-5 3 4 4 0 0 0 0 2 26 26 0 0 0-7 4l-1 1-1 1Z"/>
    <path fill="#3f3d56" d="M319 279c0 4 2 8 5 8a4 4 0 0 0 1 0c3 0 6-4 6-8a11 11 0 0 0-2-7 6 6 0 0 0-2-2 4 4 0 0 0-2 0 4 4 0 0 0-2 1c-2 1-4 4-4 8Zm-52 0c0 3 1 7 3 8a4 4 0 0 0 2 0 4 4 0 0 0 1 0c3 0 5-4 5-8s-1-7-3-9a4 4 0 0 0-3 0 4 4 0 0 0-1 0 6 6 0 0 0-2 2 11 11 0 0 0-2 7Z"/>
    <path fill="#3f3d56" d="M271 286a1 1 0 0 0 1-1 29 29 0 1 1 55-3 1 1 0 0 0 1 0 30 30 0 1 0-58 4 1 1 0 0 0 1 0Z"/>
    <path fill="#2f2e41" d="M312 264a4 4 0 0 1-1 5c-1 1-3 2-5 1h-7l-6 2c-1 1-3 0-4-2h1l3 1 5-3a10 10 0 0 1 6 0l5 1 2-4c-1-1 0-1 1-1Z"/>
    <path fill="#ccc" d="M296 327a55 55 0 0 1-16-2h-2a55 55 0 0 1-10-5l-2-1a56 56 0 0 1-8-7l-2-1a56 56 0 1 1 59 13h-1a55 55 0 0 1-18 3Zm0-108a53 53 0 0 0-38 90l2 1a53 53 0 0 0 8 7l2 1a52 52 0 0 0 9 4h2a53 53 0 0 0 32-1h1a53 53 0 0 0-18-102Z"/>
    <path fill="#3f3d56" d="M508 593H217a14 14 0 0 1-14-14V184a14 14 0 0 1 14-14h291a14 14 0 0 1 14 14v395a14 14 0 0 1-14 14ZM217 172a12 12 0 0 0-12 12v395a12 12 0 0 0 12 12h291a12 12 0 0 0 13-12V184a12 12 0 0 0-13-12Z"/>
    <path fill="#427ee6" d="M452 273h-82a7 7 0 1 1 0-13h82a7 7 0 1 1 0 13Zm27 22H370a7 7 0 1 1 0-13h109a7 7 0 0 1 0 13Z"/>
    <path fill="#ccc" d="M452 379H247a7 7 0 0 1 0-13h205a7 7 0 0 1 0 13Zm27 22H247a7 7 0 0 1 0-13h232a7 7 0 0 1 0 13Zm-27 51H247a7 7 0 0 1 0-13h205a7 7 0 0 1 0 13Zm27 22H247a7 7 0 0 1 0-13h232a7 7 0 0 1 0 13Zm-27 50H247a7 7 0 0 1 0-13h205a7 7 0 0 1 0 13Zm27 22H247a7 7 0 0 1 0-13h232a7 7 0 1 1 0 13Z"/>
    <path fill="#427ee6" d="M505 503a64 64 0 1 0 0 128 64 64 0 0 0 0-128Z"/>
    <path fill="#fff" d="M499 594a8 8 0 0 1-5-2l-17-13a8 8 0 0 1 9-13l12 9 27-35a8 8 0 0 1 11-2l-1 1 1-1a8 8 0 0 1 1 11l-32 42a8 8 0 0 1-6 3Z"/>
</svg>