<svg xmlns="http://www.w3.org/2000/svg" data-name="Layer 1" viewBox="0 0 767 683">
    <path fill="#e6e6e6" d="M552 613H176a48 48 0 0 1-48-48V123a48 48 0 0 1 48-48h350l74 59v431a48 48 0 0 1-48 48Z"/>
    <path fill="#fff" d="M176 89a34 34 0 0 0-35 34v442a34 34 0 0 0 35 34h376a34 34 0 0 0 34-34V141l-65-52Z"/>
    <path fill="#ccc" d="M473 217H221a8 8 0 1 1 0-16h252a8 8 0 0 1 0 16Zm33 27H221a8 8 0 1 1 0-16h285a8 8 0 1 1 0 16Z"/>
    <path fill="#f9a826" d="M473 339H221a8 8 0 1 1 0-16h252a8 8 0 0 1 0 16Z"/>
    <path fill="#ccc" d="M506 366H221a8 8 0 1 1 0-16h285a8 8 0 1 1 0 16Zm-33 94H221a8 8 0 1 1 0-16h252a8 8 0 0 1 0 16Zm33 27H221a8 8 0 1 1 0-16h285a8 8 0 1 1 0 16Z"/>
    <path fill="#e6e6e6" d="M599 136h-59a16 16 0 0 1-16-16V77a1 1 0 0 1 2-1l73 58a1 1 0 0 1 0 2Z"/>
    <path fill="#fff" d="M233 113A110 110 0 1 1 123 3a110 110 0 0 1 110 110Z"/>
    <path fill="#f9a826" d="M174 132c-1 70-106 70-107 0 1-71 106-71 107 0Z"/>
    <path fill="#2f2e41" d="M118 154v-2c14 1 17-16 3-9l3-23h2l-3 20c15-3 10 16-5 14Zm18-32h11v2h-11zm-34 0h11v2h-11zm36 85c2-15-15-12-24-12a10 10 0 0 0-9 12 52 52 0 0 0-18 10 110 110 0 0 0 70 1 52 52 0 0 0-19-11ZM95 107c10-6 22-2 32 1 20 6 47-2 49-25 3-22-27-34-36-12l3-1c-31-45-84-43-84 19 0 2 3 2 3 0-1-37 24-62 58-38 8 6 14 13 20 21 4 4 5-13 22-9 19 8 12 35-4 40-21 11-44-10-64 1a2 2 0 0 0 1 3Z"/>
    <path fill="#ccc" d="M123 226a113 113 0 1 1 35-6 113 113 0 0 1-35 6Zm0-220a107 107 0 1 0 107 107A107 107 0 0 0 123 6Z"/>
    <path fill="#fff" d="M764 339a110 110 0 0 1-76 105h-2l-9 3a108 108 0 0 1-16 2h-7a110 110 0 0 1-36-6l-1-1a110 110 0 1 1 147-103Z"/>
    <circle cx="651.4" cy="358.4" r="53.5" fill="#f9a826"/>
    <path fill="#2f2e41" d="m654 387 1-2c-4 0-7 0-10-2a6 6 0 0 1-2-4 4 4 0 0 1 1-3c1-2 4-1 6 0h2l-3-23h-2l2 20c-2-1-5 0-6 1a5 5 0 0 0-2 5 8 8 0 0 0 3 6c3 2 7 2 10 2Zm-28-32h11v2h-11zm34 0h11v2h-11zm7 78a10 10 0 0 0 0-2 10 10 0 0 0-10-9h-14a10 10 0 0 0-9 9 9 9 0 0 0 0 2 54 54 0 0 0-15 8l-2 1 1 1a110 110 0 0 0 36 6h7a108 108 0 0 0 16-2l9-3a54 54 0 0 0-19-11Z"/>
    <path fill="#2f2e41" d="M665 447a7 7 0 0 0-4 2 108 108 0 0 0 16-2Zm35-101-93-34a4 4 0 0 1-2-5v-2c7-20 31-32 51-25l29 10c19 8 28 31 21 51l-1 2a4 4 0 0 1-5 3Z"/>
    <path fill="#2f2e41" d="M705 348c-130 4-141-12-102-38l9-15 96 35Z"/>
    <ellipse cx="887.9" cy="394" fill="#2f2e41" rx="4.5" ry="8.5" transform="rotate(-73 707 485)"/>
    <path fill="#ccc" d="M654 452a113 113 0 0 1-37-6l-1-1a113 113 0 1 1 73 1 122 122 0 0 1-11 3 111 111 0 0 1-17 3h-7Zm0-220a107 107 0 0 0-36 208h1a107 107 0 0 0 35 6h7a105 105 0 0 0 16-2l8-3h2a107 107 0 0 0-33-209Z"/>
    <path fill="#fff" d="M3 570a110 110 0 0 0 32 78l3 2a110 110 0 0 0 17 14l4 2a109 109 0 0 0 20 9l4 1a110 110 0 0 0 66-2l2-1A110 110 0 1 0 3 570Z"/>
    <path fill="#2f2e41" d="M90 624a34 34 0 0 1-9 23c-6 6-14 10-23 9-7-2-14-9-13-17a12 12 0 0 1 15-11c8 2 11 12 4 18-1 1-3-1-2-3 4-3 3-10-2-12-6-2-12 2-12 8-1 7 5 13 11 14 7 1 14-3 19-8a31 31 0 0 0 9-21 2 2 0 0 1 3 0Z"/>
    <circle cx="119.1" cy="589.5" r="53.5" fill="#f9a826"/>
    <path fill="#2f2e41" d="M116 612v-2c4 0 7 0 10-2a6 6 0 0 0 2-4 4 4 0 0 0-1-3c-2-2-4-1-6 0h-2l3-23 2 1-2 19c2-1 5 0 6 1a5 5 0 0 1 2 5 8 8 0 0 1-3 6c-3 2-7 2-11 2Zm18-32h11v2h-11zm-34 0h11v2h-11zm-17 96a110 110 0 0 0 66-2l2-1a53 53 0 0 0-17-8 9 9 0 0 0 0-5 9 9 0 0 0-9-7h-14a9 9 0 0 0-9 7 9 9 0 0 0 0 5 53 53 0 0 0-15 7l-3 2-1 2Z"/>
    <path fill="#3f3d56" d="M161 584c0 9 4 16 10 18a8 8 0 0 0 2 0c7 0 12-8 12-18 0-6-2-11-5-14a12 12 0 0 0-3-3 8 8 0 0 0-4-1 9 9 0 0 0-5 2c-4 2-7 9-7 16Zm-107 0c0 8 3 14 8 17a9 9 0 0 0 4 1 8 8 0 0 0 1 0c6-1 11-9 11-18 0-8-3-14-8-17a9 9 0 0 0-4-1 8 8 0 0 0-4 1 12 12 0 0 0-3 3c-3 3-5 8-5 14Z"/>
    <path fill="#3f3d56" d="M63 599a2 2 0 0 0 1-2 58 58 0 1 1 113-7 2 2 0 0 0 3 1 62 62 0 1 0-119 7 2 2 0 0 0 2 1Z"/>
    <path fill="#2f2e41" d="M146 555c2 3 1 7-1 9-3 3-8 4-12 3s-9-3-14-1l-10 5c-4 1-8 0-10-4 0-2 3-3 3-1 1 3 5 3 7 2 3-1 5-4 9-5h11c4 1 8 2 12 1 2-2 4-5 2-8-1-1 2-3 3-1Z"/>
    <path fill="#ccc" d="M113 683a113 113 0 0 1-31-4l-4-2a113 113 0 0 1-20-8l-4-3a113 113 0 0 1-18-13l-3-3a113 113 0 1 1 119 26l-2 1a113 113 0 0 1-37 6Zm0-220a107 107 0 0 0-76 183l3 2a107 107 0 0 0 17 13l4 2a107 107 0 0 0 19 9l3 1a107 107 0 0 0 65-2h2a107 107 0 0 0-37-208Z"/>
</svg>