<svg xmlns="http://www.w3.org/2000/svg" data-name="Layer 1" viewBox="0 0 754 704">
    <path fill="#f2f2f2" d="m355 6-23 12L48 174l-23 12a48 48 0 0 0-19 65l212 388a48 48 0 0 0 65 20v-1l330-180a48 48 0 0 0 19-65L421 25a48 48 0 0 0-66-19Z"/>
    <path fill="#fff" d="m362 18-27 15L59 183l-27 15a34 34 0 0 0-14 47l212 388a34 34 0 0 0 46 13l330-180h1a34 34 0 0 0 13-46L409 32a34 34 0 0 0-47-14Z"/>
    <path fill="#f2f2f2" d="m367 138-124 68a8 8 0 1 1-7-14l123-68a8 8 0 1 1 8 14Zm42 8-153 83a8 8 0 0 1-7-14l152-83a8 8 0 1 1 8 14Zm-216 32L79 240a4 4 0 0 0-1 5l48 88a4 4 0 0 0 5 2l114-62a4 4 0 0 0 1-5l-48-89a4 4 0 0 0-5-1Zm235 73-167 91a8 8 0 1 1-8-14l167-91a8 8 0 1 1 8 14Zm42 8L274 366a8 8 0 0 1-8-14l196-107a8 8 0 1 1 8 14Z"/>
    <circle cx="197" cy="382.7" r="34" fill="#f2f2f2"/>
    <path fill="#e6e6e6" d="M706 166H329a48 48 0 0 0-48 48v442a48 48 0 0 0 48 48h377a48 48 0 0 0 48-48V214a48 48 0 0 0-48-48Z"/>
    <path fill="#fff" d="M706 180H329a34 34 0 0 0-34 34v442a34 34 0 0 0 34 34h377a34 34 0 0 0 34-34V214a34 34 0 0 0-34-34Z"/>
    <path fill="#427ee6" d="M652 287H512a8 8 0 0 1 0-16h140a8 8 0 1 1 0 16Zm33 27H512a8 8 0 1 1 0-16h173a8 8 0 0 1 0 16Z"/>
    <path fill="#e6e6e6" d="M481 239H351a4 4 0 0 0-3 3v101a4 4 0 0 0 3 4h130a4 4 0 0 0 4-4V242a4 4 0 0 0-4-3Z"/>
    <path fill="#2f2e41" d="M387 301a34 34 0 0 1-9 23c-6 6-14 10-23 8-7-1-14-8-13-16a12 12 0 0 1 15-11c8 1 11 12 5 17-2 1-4-1-3-2 5-3 3-11-2-12-5-2-12 2-12 8 0 7 5 12 11 13 8 2 15-2 19-7a31 31 0 0 0 9-21 2 2 0 0 1 3 0Z"/>
    <circle cx="416.2" cy="266.2" r="53.5" fill="#427ee6"/>
    <path fill="#2f2e41" d="M413 289v-2c4 0 7 0 10-2a6 6 0 0 0 2-5 4 4 0 0 0-1-3h-6l-2 1 3-23h2l-2 20c2-1 5 0 6 1a5 5 0 0 1 2 4 8 8 0 0 1-3 6c-3 3-7 3-11 3Zm18-32h11v2h-11zm-34 0h11v2h-11zm-10 90a53 53 0 0 1 12-6 9 9 0 0 1 0-4 9 9 0 0 1 10-7h13a9 9 0 0 1 9 7 9 9 0 0 1 0 4 53 53 0 0 1 13 6Z"/>
    <path fill="#3f3d56" d="M477 246a12 12 0 0 0-3-3 8 8 0 0 0-4-1 9 9 0 0 0-5 2c-4 3-7 9-7 16 0 10 5 17 10 18a8 8 0 0 0 2 0c7 0 12-8 12-18 0-5-2-10-5-14Zm-109-2a9 9 0 0 0-5-2 8 8 0 0 0-4 1 12 12 0 0 0-3 3c-3 4-5 9-5 14 0 8 3 15 8 17a9 9 0 0 0 4 1 8 8 0 0 0 1 0c6 0 11-8 11-18 0-7-3-14-7-16Z"/>
    <path fill="#3f3d56" d="M360 276a2 2 0 0 0 1-2 58 58 0 1 1 113-7 2 2 0 0 0 3 1 62 62 0 1 0-119 7 2 2 0 0 0 2 1Z"/>
    <path fill="#2f2e41" d="M443 231c2 3 1 7-1 10-3 3-8 3-12 3-4-1-9-3-14-2-3 1-6 5-10 6s-8 0-9-4c-1-2 2-3 2-1 1 2 5 2 7 2l9-5c3-2 8-1 11 0 4 1 8 2 12 0 2-1 4-4 2-7-1-2 2-3 3-2Z"/>
    <path fill="#e6e6e6" d="M652 415H462a8 8 0 1 1 0-16h190a8 8 0 0 1 0 16Zm33 27H462a8 8 0 1 1 0-16h223a8 8 0 1 1 0 16Zm-33 71H462a8 8 0 1 1 0-16h190a8 8 0 1 1 0 16Zm33 27H462a8 8 0 1 1 0-16h223a8 8 0 1 1 0 16Z"/>
    <circle cx="386.2" cy="420.6" r="34" fill="#e6e6e6"/>
    <circle cx="386.2" cy="518.6" r="34" fill="#e6e6e6"/>
    <path fill="#e6e6e6" d="M652 611H462a8 8 0 1 1 0-16h190a8 8 0 1 1 0 16Zm33 27H462a8 8 0 1 1 0-16h223a8 8 0 1 1 0 16Z"/>
    <circle cx="386.2" cy="616.6" r="34" fill="#e6e6e6"/>
</svg>