<svg xmlns="http://www.w3.org/2000/svg" data-name="Layer 1" viewBox="0 0 676 676">
    <path fill="#f2f2f2" d="M676 338a337 337 0 0 1-18 109l-2 6a338 338 0 0 1-54 96q-10 13-22 25l-24 22a336 336 0 0 1-166 76l-23 3-29 1A337 337 0 0 1 96 574l-6-7-16-18-8-10a337 337 0 0 1-40-71 332 332 0 0 1-12-33l-1-2-1-6a338 338 0 0 1-12-89 338 338 0 0 1 676 0Z"/>
    <path fill="#a0616a" d="M143 202a22 22 0 0 0 22 26l54 157 35-24-67-157a22 22 0 0 0-44-2Z"/>
    <path fill="#f9a826" d="M425 255a859 859 0 0 1-178 137 28 28 0 0 1-39-15l-34-81 12-8 29-19 6-4 27 64 29-23 17-14 81-65 7-2 16 16 12 11 10 2 5 1Z"/>
    <path fill="#fff" d="m640 479 5 7a335 335 0 0 1-20 35l-2-1-6-5a70 70 0 0 1-3-17 5 5 0 0 0 1-10v-2c1-12 17-17 25-7Zm18-43 3 10-2 6-1-3a162 162 0 0 0-6-17l-6-14a170 170 0 0 0-52-60 45 45 0 0 1-23-14 35 35 0 0 1-6-8l3-1h1a5 5 0 0 0 2-9l-2-1-2-2-3-2a15 15 0 0 1 3-6c6-6 16-6 23-1 6 5 9 13 10 21 0 7-1 14-3 20l1 1a171 171 0 0 1 25 23c-4-10-6-24-5-33 2-11 7-21 11-31 5-12 22-12 27 0v1l-2 2a7 7 0 0 0 6 12 72 72 0 0 1 1 11 74 74 0 0 1-23 54l-1 1a171 171 0 0 1 12 21 172 172 0 0 1 9 19Z"/>
    <path fill="#f9a826" d="m465 343-3 207-244-7 39-86c0-3 17-22 17-25 0-8 6-16 7-25 2-18-10-87-4-101a96 96 0 0 1 9-18c3-5 6-8 9-9l9-21 8-12 63-19 7-2 16 16 12 11 10 2 5 1a47 47 0 0 1 20 10c18 16 21 46 20 78Z"/>
    <path fill="#ccc" d="M605 548q-10 13-22 25H328l-36 1H99l-6-7-16-18h342l150-1Z"/>
    <path fill="#2f2e41" d="M268 237a11 11 0 0 1-12-10l-6-61a81 81 0 0 1 4-32 83 83 0 0 1 39-47 82 82 0 0 1 31-10c45-4 61 5 89 73s6 61 6 61a11 11 0 0 1-1 5 11 11 0 0 1-5 6 11 11 0 0 1-4 1c-53 14-107 28-141 14Z" />
    <path fill="#9e616a" d="M366 135a60 60 0 0 1-61 92 59 59 0 0 1-38-25 60 60 0 0 1 61-93 59 59 0 0 1 38 26Z"/>
    <path fill="#2f2e41" d="M231 173a64 64 0 0 1 3-25c1-21 7-39 31-38a64 64 0 0 1 25-8l12-1a64 64 0 0 1 70 58v2l-25 2-11-24v25l-13 1-6-12 1 13c-20 17-50 18-87 8Z" />
    <path fill="#2f2e41" d="M314 231a11 11 0 0 0 1 6 11 11 0 0 0 1 2 11 11 0 0 0 2 2 11 11 0 0 0 7 2h2v-1l9-2 10-28 3 24 40-11-9-104-70 7 2 1a48 48 0 0 1 13 23 78 78 0 0 1 2 27 141 141 0 0 1-5 26 208 208 0 0 1-8 23 11 11 0 0 0 0 3Z" />
    <path fill="#3f3d56" d="M323 560a8 8 0 0 1-4-1l-192 5a8 8 0 0 1 1-15l126-38a8 8 0 0 1 4 0l195 24a8 8 0 0 1 1 15l-129 9a8 8 0 0 1-2 1Z"/>
    <path fill="#2f2e41" d="M330 546a5 5 0 0 1-3 0l-156 7a5 5 0 0 1 1-9l57-14a5 5 0 0 1 3 0h145a5 5 0 0 1 0 9l-46 7a5 5 0 0 1-1 0Z"/>
    <path fill="#a0616a" d="M313 538a22 22 0 0 0 33-10l165 13-8-41-171-2a22 22 0 0 0-19 40Z"/>
    <path fill="#f9a826" d="M411 271s25-20 55 16c20 24 59 171 63 232a28 28 0 0 1-29 29l-88-1-10-56 70 1Z"/>
    <path fill="#3f3d56" d="M312 560a23 23 0 0 1-9-2l-178 4a23 23 0 0 1-14-25l-6-156a23 23 0 0 1 23-19l166 7a23 23 0 0 1 21 26l19 146a23 23 0 0 1-22 19Z"/>
    <path fill="#e6e6e6" d="M177 93h-75a8 8 0 0 0-7 7l-1 99a8 8 0 0 0 8 8h74a8 8 0 0 0 8-8v-98a8 8 0 0 0-7-8Z"/>
    <path fill="#fff" d="M171 99h-64a7 7 0 0 0-7 7v63a31 31 0 0 0 31 32h40a7 7 0 0 0 7-7v-88a7 7 0 0 0-7-7Z"/>
    <path fill="#f9a826" d="M164 142h-50a3 3 0 1 0 0 6h50a3 3 0 0 0 0-6Zm-39-16h-11a3 3 0 1 0 0 6h11a3 3 0 1 0 0-6Zm39 43h-50a3 3 0 1 0 0 6h50a3 3 0 0 0 0-6Zm0-13h-50a3 3 0 1 0 0 6h50a3 3 0 0 0 0-6Zm-10-19a18 18 0 1 1 18-18 18 18 0 0 1-18 18Zm0-35a16 16 0 1 0 17 17 17 17 0 0 0-17-17Z"/>
    <path fill="#f9a826" d="M162 126a46 46 0 0 0-8-18 1 1 0 0 0-1 0 49 49 0 0 0-6 18c0 2 1 2 2 0a46 46 0 0 1 1-6 13 13 0 0 1 8-1 44 44 0 0 1 2 7h2Zm-12-8a47 47 0 0 1 4-8 44 44 0 0 1 3 7 16 16 0 0 0-7 1Z"/>
</svg>